FrauncesItalic-BlackOpMinGoofyMax.ufo
<glyph name="V" format="2">
  <advance width="1511"/>
  <unicode hex="0056"/>
  <outline>
    <contour>
      <point x="1117" y="1292" type="curve" smooth="yes"/>
      <point x="1117" y="1250"/>
      <point x="1140" y="1215"/>
      <point x="1177" y="1188" type="curve" smooth="yes"/>
      <point x="1201" y="1170" type="line" smooth="yes"/>
      <point x="1257" y="1128"/>
      <point x="1249" y="1092"/>
      <point x="1171" y="966" type="curve" smooth="yes"/>
      <point x="652" y="126" type="line"/>
      <point x="816" y="158" type="line"/>
      <point x="810" y="461"/>
      <point x="786" y="922"/>
      <point x="785" y="1002" type="curve" smooth="yes"/>
      <point x="783" y="1124"/>
      <point x="805" y="1162"/>
      <point x="848" y="1176" type="curve" smooth="yes"/>
      <point x="872" y="1184" type="line" smooth="yes"/>
      <point x="919" y="1200"/>
      <point x="946" y="1238"/>
      <point x="946" y="1304" type="curve" smooth="yes"/>
      <point x="946" y="1366"/>
      <point x="910" y="1400"/>
      <point x="856" y="1400" type="curve" smooth="yes"/>
      <point x="347" y="1400" type="line" smooth="yes"/>
      <point x="283" y="1400"/>
      <point x="225" y="1350"/>
      <point x="225" y="1290" type="curve" smooth="yes"/>
      <point x="225.0" y="1240.8214285714287"/>
      <point x="247.7123959991942" y="1206.2511023338034"/>
      <point x="279" y="1188" type="curve" smooth="yes"/>
      <point x="291" y="1181" type="line" smooth="yes"/>
      <point x="322.91811087838084" y="1162.3811019876111"/>
      <point x="334" y="1133"/>
      <point x="336" y="1085" type="curve" smooth="yes"/>
      <point x="344" y="907"/>
      <point x="366" y="470"/>
      <point x="370" y="386" type="curve" smooth="yes"/>
      <point x="372" y="342"/>
      <point x="382" y="265"/>
      <point x="370" y="220" type="curve" smooth="yes"/>
      <point x="348" y="140" type="line" smooth="yes"/>
      <point x="327" y="62"/>
      <point x="359" y="0"/>
      <point x="426" y="0" type="curve" smooth="yes"/>
      <point x="805" y="0" type="line" smooth="yes"/>
      <point x="879" y="0"/>
      <point x="905" y="56"/>
      <point x="921" y="114" type="curve" smooth="yes"/>
      <point x="938" y="176" type="line" smooth="yes"/>
      <point x="949" y="215"/>
      <point x="961" y="246"/>
      <point x="988" y="288" type="curve" smooth="yes"/>
      <point x="1393" y="916" type="line" smooth="yes"/>
      <point x="1490.9044321614313" y="1067.812304684886"/>
      <point x="1513.8746889023944" y="1118.437344451197"/>
      <point x="1581" y="1152" type="curve" smooth="yes"/>
      <point x="1609" y="1166" type="line" smooth="yes"/>
      <point x="1664.4005033540927" y="1193.7002516770463"/>
      <point x="1685.0" y="1230"/>
      <point x="1685.0" y="1299" type="curve" smooth="yes"/>
      <point x="1685" y="1358"/>
      <point x="1647" y="1400"/>
      <point x="1575" y="1400" type="curve" smooth="yes"/>
      <point x="1203" y="1400" type="line" smooth="yes"/>
      <point x="1151" y="1400"/>
      <point x="1117" y="1356"/>
    </contour>
  </outline>
</glyph>
<glyph name="X" format="2">
  <advance width="1510"/>
  <unicode hex="0058"/>
  <outline>
    <contour>
      <point x="611" y="757" type="line"/>
      <point x="213" y="311" type="line" smooth="yes"/>
      <point x="171" y="263"/>
      <point x="125" y="248"/>
      <point x="77" y="224" type="curve" smooth="yes"/>
      <point x="10" y="191"/>
      <point x="-12.0" y="154.0"/>
      <point x="-12" y="99" type="curve" smooth="yes"/>
      <point x="-12" y="37"/>
      <point x="20" y="0"/>
      <point x="93" y="0" type="curve" smooth="yes"/>
      <point x="435" y="0" type="line" smooth="yes"/>
      <point x="499" y="0"/>
      <point x="551" y="46"/>
      <point x="551" y="111" type="curve" smooth="yes"/>
      <point x="551" y="155"/>
      <point x="528" y="183"/>
      <point x="501" y="200" type="curve" smooth="yes"/>
      <point x="483" y="211" type="line" smooth="yes"/>
      <point x="452" y="230"/>
      <point x="444" y="259"/>
      <point x="522" y="346" type="curve" smooth="yes"/>
      <point x="751" y="603" type="line"/>
    </contour>
    <contour>
      <point x="845" y="1100" type="curve" smooth="yes"/>
      <point x="831" y="1133"/>
      <point x="833" y="1158"/>
      <point x="860" y="1172" type="curve" smooth="yes"/>
      <point x="883" y="1184" type="line" smooth="yes"/>
      <point x="936" y="1212"/>
      <point x="967" y="1249"/>
      <point x="967" y="1306" type="curve" smooth="yes"/>
      <point x="967" y="1365"/>
      <point x="936" y="1400"/>
      <point x="860" y="1400" type="curve" smooth="yes"/>
      <point x="319" y="1400" type="line" smooth="yes"/>
      <point x="245" y="1400"/>
      <point x="196" y="1358"/>
      <point x="196" y="1296" type="curve" smooth="yes"/>
      <point x="196" y="1250"/>
      <point x="218" y="1222"/>
      <point x="266" y="1191" type="curve" smooth="yes"/>
      <point x="308" y="1164"/>
      <point x="328" y="1158"/>
      <point x="355" y="1106" type="curve" smooth="yes"/>
      <point x="466.73641157828456" y="882.5271768434309"/>
      <point x="731.81416527481" y="395.4110889375414"/>
      <point x="765" y="322" type="curve" smooth="yes"/>
      <point x="786" y="276"/>
      <point x="791" y="241"/>
      <point x="747" y="217" type="curve" smooth="yes"/>
      <point x="736" y="211" type="line" smooth="yes"/>
      <point x="684" y="182"/>
      <point x="662" y="146"/>
      <point x="662" y="98" type="curve" smooth="yes"/>
      <point x="662" y="43"/>
      <point x="686" y="0"/>
      <point x="767" y="0" type="curve" smooth="yes"/>
      <point x="1297" y="0" type="line" smooth="yes"/>
      <point x="1368" y="0"/>
      <point x="1412" y="46"/>
      <point x="1412" y="108" type="curve" smooth="yes"/>
      <point x="1412" y="155"/>
      <point x="1388" y="186"/>
      <point x="1338" y="214" type="curve" smooth="yes"/>
      <point x="1300" y="235"/>
      <point x="1273" y="256"/>
      <point x="1249" y="310" type="curve" smooth="yes"/>
      <point x="1143.411030695876" y="546.3181693949441"/>
      <point x="902.3058755965715" y="968.2970227517392"/>
    </contour>
    <contour>
      <point x="958" y="685" type="line"/>
      <point x="1143" y="901" type="line" smooth="yes"/>
      <point x="1216.4480643362238" y="986.755577819591"/>
      <point x="1267.7474747474748" y="1026.0"/>
      <point x="1333" y="1026" type="curve" smooth="yes"/>
      <point x="1357.9565217391305" y="1026.0"/>
      <point x="1376.6739130434783" y="1025.0"/>
      <point x="1415" y="1025" type="curve" smooth="yes"/>
      <point x="1546.038647342995" y="1025.0"/>
      <point x="1632.0" y="1124.0772532188842"/>
      <point x="1632" y="1268" type="curve" smooth="yes"/>
      <point x="1632.0" y="1369.3979057591623"/>
      <point x="1578.0" y="1449.0"/>
      <point x="1470" y="1449" type="curve" smooth="yes"/>
      <point x="1362.389090909091" y="1449.0"/>
      <point x="1291.3730983777937" y="1396.3865285259449"/>
      <point x="1177" y="1261" type="curve" smooth="yes"/>
      <point x="796" y="810" type="line"/>
    </contour>
  </outline>
</glyph>
<glyph name="brokenbar" format="2">
  <advance width="690"/>
  <unicode hex="00A6"/>
  <outline>
    <contour>
      <point x="525" y="808" type="curve" smooth="yes"/>
      <point x="583" y="1026"/>
      <point x="672" y="1249"/>
      <point x="713" y="1403" type="curve" smooth="yes"/>
      <point x="735" y="1487"/>
      <point x="706" y="1536"/>
      <point x="621" y="1536" type="curve" smooth="yes"/>
      <point x="535" y="1536"/>
      <point x="478" y="1487"/>
      <point x="456" y="1403" type="curve" smooth="yes"/>
      <point x="415" y="1249"/>
      <point x="387" y="1027"/>
      <point x="329" y="808" type="curve" smooth="yes"/>
      <point x="309" y="736"/>
      <point x="338" y="704"/>
      <point x="397" y="704" type="curve" smooth="yes"/>
      <point x="466" y="704"/>
      <point x="505" y="734"/>
    </contour>
    <contour>
      <point x="221" y="416" type="curve" smooth="yes"/>
      <point x="163" y="198"/>
      <point x="74" y="-25"/>
      <point x="33" y="-179" type="curve" smooth="yes"/>
      <point x="11" y="-263"/>
      <point x="40" y="-312"/>
      <point x="125" y="-312" type="curve" smooth="yes"/>
      <point x="211" y="-312"/>
      <point x="268" y="-263"/>
      <point x="290" y="-179" type="curve" smooth="yes"/>
      <point x="331" y="-25"/>
      <point x="359" y="197"/>
      <point x="417" y="416" type="curve" smooth="yes"/>
      <point x="437" y="488"/>
      <point x="408" y="520"/>
      <point x="349" y="520" type="curve" smooth="yes"/>
      <point x="280" y="520"/>
      <point x="241" y="490"/>
    </contour>
  </outline>
</glyph>
<glyph name="mu.math" format="2">
  <advance width="1334"/>
  <unicode hex="00B5"/>
  <outline>
    <contour>
      <point x="99" y="313" type="line"/>
      <point x="29" y="51"/>
      <point x="-166" y="-139"/>
      <point x="-197" y="-256" type="curve" smooth="yes"/>
      <point x="-234" y="-395"/>
      <point x="-181" y="-491"/>
      <point x="-62" y="-491" type="curve" smooth="yes"/>
      <point x="37" y="-491"/>
      <point x="139" y="-418"/>
      <point x="166" y="-316" type="curve" smooth="yes"/>
      <point x="210" y="-150"/>
      <point x="65" y="-42"/>
      <point x="149" y="273" type="curve"/>
    </contour>
    <contour>
      <point x="184" y="522" type="curve" smooth="yes"/>
      <point x="108" y="338" type="line" smooth="yes"/>
      <point x="25" y="137"/>
      <point x="43" y="-30"/>
      <point x="241" y="-30" type="curve" smooth="yes"/>
      <point x="452" y="-30"/>
      <point x="662" y="97"/>
      <point x="852" y="476" type="curve"/>
      <point x="804" y="488" type="line"/>
      <point x="798" y="352"/>
      <point x="666" y="204"/>
      <point x="666" y="102" type="curve" smooth="yes"/>
      <point x="666" y="16"/>
      <point x="732" y="-30"/>
      <point x="850" y="-30" type="curve" smooth="yes"/>
      <point x="1003" y="-30"/>
      <point x="1162" y="51"/>
      <point x="1244" y="174" type="curve" smooth="yes"/>
      <point x="1284" y="234"/>
      <point x="1281" y="289"/>
      <point x="1248" y="312" type="curve" smooth="yes"/>
      <point x="1229" y="325"/>
      <point x="1202" y="328"/>
      <point x="1166" y="310" type="curve" smooth="yes"/>
      <point x="1141" y="298"/>
      <point x="1126" y="290"/>
      <point x="1109" y="290" type="curve" smooth="yes"/>
      <point x="1068" y="290"/>
      <point x="1060" y="320"/>
      <point x="1106" y="418" type="curve" smooth="yes"/>
      <point x="1218" y="656" type="line" smooth="yes"/>
      <point x="1301" y="832"/>
      <point x="1256" y="970"/>
      <point x="1104" y="970" type="curve" smooth="yes"/>
      <point x="898" y="970"/>
      <point x="776" y="902"/>
      <point x="776" y="796" type="curve" smooth="yes"/>
      <point x="776" y="738"/>
      <point x="800" y="696"/>
      <point x="800" y="648" type="curve" smooth="yes"/>
      <point x="800" y="607"/>
      <point x="782" y="564"/>
      <point x="746" y="468" type="curve" smooth="yes"/>
      <point x="707" y="359"/>
      <point x="639" y="298"/>
      <point x="566" y="298" type="curve" smooth="yes"/>
      <point x="504" y="298"/>
      <point x="505" y="350"/>
      <point x="530" y="422" type="curve" smooth="yes"/>
      <point x="616" y="656" type="line" smooth="yes"/>
      <point x="683" y="839"/>
      <point x="654" y="970"/>
      <point x="502" y="970" type="curve" smooth="yes"/>
      <point x="296" y="970"/>
      <point x="174" y="902"/>
      <point x="174" y="796" type="curve" smooth="yes"/>
      <point x="174" y="738"/>
      <point x="210" y="696"/>
      <point x="210" y="648" type="curve" smooth="yes"/>
      <point x="210" y="606"/>
      <point x="202" y="567"/>
    </contour>
  </outline>
</glyph>
<glyph name="ae" format="2">
  <advance width="1759"/>
  <unicode hex="00E6"/>
  <outline>
    <contour>
      <point x="1002" y="447" type="curve"/>
      <point x="1012" y="318" type="line"/>
      <point x="1012" y="318"/>
      <point x="1425" y="436"/>
      <point x="1610" y="483" type="curve" smooth="yes"/>
      <point x="1702" y="506"/>
      <point x="1730" y="553"/>
      <point x="1730" y="603" type="curve" smooth="yes"/>
      <point x="1730" y="637"/>
      <point x="1714" y="655"/>
      <point x="1692" y="665" type="curve" smooth="yes"/>
      <point x="1678" y="673"/>
      <point x="1668" y="701"/>
      <point x="1660" y="731" type="curve" smooth="yes"/>
      <point x="1624" y="877"/>
      <point x="1540" y="973"/>
      <point x="1344" y="973" type="curve" smooth="yes"/>
      <point x="1169" y="973"/>
      <point x="1029" y="874"/>
      <point x="932" y="714" type="curve"/>
      <point x="1020" y="737" type="line"/>
      <point x="1011" y="900"/>
      <point x="919" y="978"/>
      <point x="703" y="978" type="curve" smooth="yes"/>
      <point x="328" y="978"/>
      <point x="77" y="656"/>
      <point x="38" y="353" type="curve" smooth="yes"/>
      <point x="5" y="101"/>
      <point x="99" y="-28"/>
      <point x="287" y="-28" type="curve" smooth="yes"/>
      <point x="494" y="-28"/>
      <point x="664" y="78"/>
      <point x="772" y="301" type="curve"/>
      <point x="750" y="304" type="line"/>
      <point x="727" y="107"/>
      <point x="864" y="-27"/>
      <point x="1104" y="-27" type="curve" smooth="yes"/>
      <point x="1466" y="-27"/>
      <point x="1682" y="153"/>
      <point x="1682" y="329" type="curve" smooth="yes"/>
      <point x="1682" y="371"/>
      <point x="1662" y="413"/>
      <point x="1614" y="413" type="curve" smooth="yes"/>
      <point x="1566" y="413"/>
      <point x="1538" y="393"/>
      <point x="1488" y="335" type="curve" smooth="yes"/>
      <point x="1429" y="267"/>
      <point x="1346" y="223"/>
      <point x="1248" y="223" type="curve" smooth="yes"/>
      <point x="1134" y="223"/>
      <point x="1071" y="309"/>
      <point x="1086" y="483" type="curve" smooth="yes"/>
      <point x="1101" y="661"/>
      <point x="1169" y="773"/>
      <point x="1240" y="773" type="curve" smooth="yes"/>
      <point x="1288" y="773"/>
      <point x="1313" y="740"/>
      <point x="1313" y="685" type="curve" smooth="yes"/>
      <point x="1313" y="631"/>
      <point x="1305" y="574"/>
      <point x="1292" y="535" type="curve"/>
      <point x="1306" y="547" type="line"/>
      <point x="1193" y="511"/>
      <point x="1002" y="447"/>
    </contour>
    <contour>
      <point x="461" y="382" type="curve" smooth="yes"/>
      <point x="496" y="565"/>
      <point x="606" y="760"/>
      <point x="703" y="760" type="curve" smooth="yes"/>
      <point x="741" y="760"/>
      <point x="768" y="719"/>
      <point x="759" y="652" type="curve" smooth="yes"/>
      <point x="728" y="428"/>
      <point x="592" y="244"/>
      <point x="503" y="244" type="curve" smooth="yes"/>
      <point x="469" y="244"/>
      <point x="442" y="280"/>
    </contour>
  </outline>
</glyph>
<glyph name="Uogonek" format="2">
  <advance width="1535"/>
  <unicode hex="0172"/>
  <outline>
    <contour>
      <point x="926" y="73" type="line"/>
      <point x="601.1221976879838" y="-9.714287091709636"/>
      <point x="451.01801525148835" y="-101.93289318820587"/>
      <point x="411" y="-251" type="curve" smooth="yes"/>
      <point x="373" y="-390"/>
      <point x="444" y="-479"/>
      <point x="607" y="-479" type="curve" smooth="yes"/>
      <point x="752" y="-479"/>
      <point x="876" y="-410"/>
      <point x="939" y="-325" type="curve" smooth="yes"/>
      <point x="983" y="-266"/>
      <point x="966" y="-228"/>
      <point x="939" y="-219" type="curve" smooth="yes"/>
      <point x="915" y="-210"/>
      <point x="892" y="-223"/>
      <point x="862" y="-245" type="curve" smooth="yes"/>
      <point x="830" y="-269"/>
      <point x="806" y="-280"/>
      <point x="778" y="-280" type="curve" smooth="yes"/>
      <point x="733" y="-280"/>
      <point x="707" y="-247"/>
      <point x="723" y="-191" type="curve" smooth="yes"/>
      <point x="742.7601227062927" y="-118.5462167435936"/>
      <point x="794.8606239040116" y="-53.56968804799419"/>
      <point x="942" y="20" type="curve"/>
    </contour>
    <component base="U"/>
  </outline>
</glyph>
<glyph name="gravecmb" format="2">
  <advance width="715"/>
  <unicode hex="0300"/>
  <anchor x="798" y="980" name="center"/>
  <outline>
    <contour>
      <point x="612" y="1332" type="line" smooth="yes"/>
      <point x="559" y="1452"/>
      <point x="494" y="1532"/>
      <point x="379" y="1512" type="curve" smooth="yes"/>
      <point x="281" y="1495"/>
      <point x="228" y="1407"/>
      <point x="243" y="1323" type="curve" smooth="yes"/>
      <point x="258" y="1241"/>
      <point x="306" y="1193"/>
      <point x="418" y="1139" type="curve" smooth="yes"/>
      <point x="574" y="1063" type="line" smooth="yes"/>
      <point x="612" y="1045"/>
      <point x="658" y="1045"/>
      <point x="682" y="1071" type="curve" smooth="yes"/>
      <point x="709" y="1100"/>
      <point x="699" y="1136"/>
      <point x="681" y="1176" type="curve" smooth="yes"/>
    </contour>
  </outline>
</glyph>
<glyph name="acutecmb" format="2">
  <advance width="538"/>
  <unicode hex="0301"/>
  <anchor x="268" y="980" name="center"/>
  <outline>
    <contour>
      <point x="356" y="1350" type="curve" smooth="yes"/>
      <point x="263" y="1216" type="line" smooth="yes"/>
      <point x="231" y="1170"/>
      <point x="213" y="1124"/>
      <point x="234" y="1091" type="curve" smooth="yes"/>
      <point x="254" y="1059"/>
      <point x="308" y="1062"/>
      <point x="361" y="1082" type="curve" smooth="yes"/>
      <point x="518" y="1142" type="line" smooth="yes"/>
      <point x="637" y="1188"/>
      <point x="697" y="1235"/>
      <point x="726" y="1301" type="curve" smooth="yes"/>
      <point x="766" y="1393"/>
      <point x="723" y="1495"/>
      <point x="635" y="1512" type="curve" smooth="yes"/>
      <point x="527" y="1534"/>
      <point x="434" y="1463"/>
    </contour>
  </outline>
</glyph>
<glyph name="circumflexcmb" format="2">
  <advance width="787"/>
  <unicode hex="0302"/>
  <outline>
    <contour>
      <point x="667" y="1294" type="line"/>
      <point x="322" y="1079" type="line" smooth="yes"/>
      <point x="258" y="1039"/>
      <point x="202" y="1043"/>
      <point x="178" y="1072" type="curve" smooth="yes"/>
      <point x="158" y="1096"/>
      <point x="161" y="1150"/>
      <point x="218" y="1201" type="curve" smooth="yes"/>
      <point x="422" y="1385" type="line" smooth="yes"/>
      <point x="492" y="1448"/>
      <point x="545" y="1488"/>
      <point x="618" y="1488" type="curve" smooth="yes"/>
      <point x="691" y="1488"/>
      <point x="729" y="1452"/>
      <point x="758" y="1385" type="curve" smooth="yes"/>
      <point x="848" y="1181" type="line" smooth="yes"/>
      <point x="868" y="1136"/>
      <point x="858" y="1088"/>
      <point x="836" y="1072" type="curve" smooth="yes"/>
      <point x="801" y="1047"/>
      <point x="761" y="1041"/>
      <point x="724" y="1079" type="curve" smooth="yes"/>
      <point x="495" y="1314" type="line"/>
    </contour>
  </outline>
</glyph>
<glyph name="tildecmb" format="2">
  <advance width="788"/>
  <unicode hex="0303"/>
  <outline>
    <contour>
      <point x="479" y="1178"/>
      <point x="524" y="1054"/>
      <point x="645" y="1054" type="curve" smooth="yes"/>
      <point x="748" y="1054"/>
      <point x="856" y="1147"/>
      <point x="904" y="1324" type="curve" smooth="yes"/>
      <point x="922" y="1393"/>
      <point x="910" y="1427"/>
      <point x="860" y="1427" type="curve" smooth="yes"/>
      <point x="824" y="1427"/>
      <point x="800" y="1414"/>
      <point x="775" y="1378" type="curve" smooth="yes"/>
      <point x="744" y="1325"/>
      <point x="718" y="1299"/>
      <point x="680" y="1299" type="curve" smooth="yes"/>
      <point x="609" y="1299"/>
      <point x="563" y="1423"/>
      <point x="442" y="1423" type="curve" smooth="yes"/>
      <point x="338" y="1423"/>
      <point x="231" y="1330"/>
      <point x="184" y="1154" type="curve" smooth="yes"/>
      <point x="166" y="1085"/>
      <point x="177" y="1050"/>
      <point x="227" y="1050" type="curve" smooth="yes"/>
      <point x="263" y="1050"/>
      <point x="288" y="1063"/>
      <point x="313" y="1100" type="curve" smooth="yes"/>
      <point x="346" y="1153"/>
      <point x="372" y="1178"/>
      <point x="408" y="1178" type="curve" smooth="yes"/>
    </contour>
  </outline>
</glyph>
<glyph name="macroncmb" format="2">
  <advance width="848"/>
  <unicode hex="0304"/>
  <outline>
    <contour>
      <point x="199" y="1237" type="curve" smooth="yes"/>
      <point x="175.39532625776928" y="1150.0918830399687"/>
      <point x="210.0" y="1099.0"/>
      <point x="286" y="1099.0" type="curve" smooth="yes"/>
      <point x="806" y="1099" type="line" smooth="yes"/>
      <point x="871.0" y="1099"/>
      <point x="925" y="1136"/>
      <point x="944" y="1208" type="curve" smooth="yes"/>
      <point x="964" y="1284"/>
      <point x="929.0" y="1337.0"/>
      <point x="844" y="1337.0" type="curve" smooth="yes"/>
      <point x="334" y="1337" type="line" smooth="yes"/>
      <point x="269.0" y="1337"/>
      <point x="215.47274964967872" y="1300.1455403237685"/>
    </contour>
  </outline>
</glyph>
<glyph name="brevecmb" format="2">
  <advance width="722"/>
  <unicode hex="0306"/>
  <outline>
    <contour>
      <point x="454" y="1295" type="curve" smooth="yes"/>
      <point x="384" y="1295"/>
      <point x="344" y="1321"/>
      <point x="319" y="1384" type="curve" smooth="yes"/>
      <point x="305" y="1422"/>
      <point x="285" y="1441"/>
      <point x="254" y="1441" type="curve" smooth="yes"/>
      <point x="209" y="1441"/>
      <point x="175" y="1396"/>
      <point x="164" y="1330" type="curve" smooth="yes"/>
      <point x="131" y="1147"/>
      <point x="233" y="1050"/>
      <point x="388" y="1050" type="curve" smooth="yes"/>
      <point x="555" y="1050"/>
      <point x="718" y="1146"/>
      <point x="784" y="1330" type="curve" smooth="yes"/>
      <point x="808" y="1398"/>
      <point x="794" y="1441"/>
      <point x="732" y="1441" type="curve" smooth="yes"/>
      <point x="702" y="1441"/>
      <point x="671" y="1422"/>
      <point x="637" y="1384" type="curve" smooth="yes"/>
      <point x="578" y="1321"/>
      <point x="524" y="1295"/>
    </contour>
  </outline>
</glyph>
<glyph name="dotaccentcmb" format="2">
  <advance width="553"/>
  <unicode hex="0307"/>
  <outline>
    <contour>
      <point x="375" y="1044" type="curve" smooth="yes"/>
      <point x="520" y="1044"/>
      <point x="622" y="1110"/>
      <point x="652" y="1223" type="curve" smooth="yes"/>
      <point x="685" y="1345"/>
      <point x="620" y="1419"/>
      <point x="475" y="1419" type="curve" smooth="yes"/>
      <point x="332" y="1419"/>
      <point x="227" y="1353"/>
      <point x="197" y="1243" type="curve" smooth="yes"/>
      <point x="164" y="1116"/>
      <point x="232" y="1044"/>
    </contour>
  </outline>
</glyph>
<glyph name="dieresiscmb" format="2">
  <advance width="988"/>
  <unicode hex="0308"/>
  <outline>
    <contour>
      <point x="349" y="1044" type="curve" smooth="yes"/>
      <point x="473.0" y="1044.0"/>
      <point x="566.5539260373348" y="1106.8531214072946"/>
      <point x="595" y="1214" type="curve" smooth="yes"/>
      <point x="627.5976646771225" y="1333.8752830061921"/>
      <point x="569.0" y="1405.0"/>
      <point x="445" y="1405" type="curve" smooth="yes"/>
      <point x="322.0" y="1405.0"/>
      <point x="227.40841783312152" y="1342.147084934705"/>
      <point x="198" y="1234" type="curve" smooth="yes"/>
      <point x="165.39157366444934" y="1113.033257142312"/>
      <point x="226.0" y="1044.0"/>
    </contour>
    <contour>
      <point x="837" y="1044" type="curve" smooth="yes"/>
      <point x="964.0" y="1044.0"/>
      <point x="1057.5539260373348" y="1106.8531214072946"/>
      <point x="1086" y="1214" type="curve" smooth="yes"/>
      <point x="1118.5976646771223" y="1333.8752830061921"/>
      <point x="1060.0" y="1405.0"/>
      <point x="933" y="1405" type="curve" smooth="yes"/>
      <point x="810.0" y="1405.0"/>
      <point x="715.4084178331215" y="1342.147084934705"/>
      <point x="686" y="1234" type="curve" smooth="yes"/>
      <point x="653.3915736644493" y="1113.033257142312"/>
      <point x="714.0" y="1044.0"/>
    </contour>
  </outline>
</glyph>
<glyph name="hungarumlautcmb" format="2">
  <advance width="862"/>
  <unicode hex="030B"/>
  <anchor x="435" y="980" name="center"/>
  <outline>
    <contour>
      <point x="327" y="1336" type="curve" smooth="yes"/>
      <point x="248" y="1188" type="line" smooth="yes"/>
      <point x="221" y="1138"/>
      <point x="208" y="1102"/>
      <point x="236" y="1074" type="curve" smooth="yes"/>
      <point x="260" y="1050"/>
      <point x="311" y="1055"/>
      <point x="356" y="1082" type="curve" smooth="yes"/>
      <point x="488" y="1161" type="line" smooth="yes"/>
      <point x="596" y="1226"/>
      <point x="647" y="1269"/>
      <point x="670" y="1341" type="curve" smooth="yes"/>
      <point x="693" y="1425"/>
      <point x="649" y="1507"/>
      <point x="559" y="1509" type="curve" smooth="yes"/>
      <point x="456" y="1510"/>
      <point x="383" y="1442"/>
    </contour>
    <contour>
      <point x="716" y="1336" type="curve" smooth="yes"/>
      <point x="637" y="1188" type="line" smooth="yes"/>
      <point x="610" y="1138"/>
      <point x="597" y="1102"/>
      <point x="625" y="1074" type="curve" smooth="yes"/>
      <point x="649" y="1050"/>
      <point x="700" y="1055"/>
      <point x="745" y="1082" type="curve" smooth="yes"/>
      <point x="877" y="1161" type="line" smooth="yes"/>
      <point x="985" y="1226"/>
      <point x="1036" y="1269"/>
      <point x="1059" y="1341" type="curve" smooth="yes"/>
      <point x="1082" y="1425"/>
      <point x="1038" y="1507"/>
      <point x="948" y="1509" type="curve" smooth="yes"/>
      <point x="845" y="1510"/>
      <point x="772" y="1442"/>
    </contour>
  </outline>
</glyph>
<glyph name="caroncmb" format="2">
  <advance width="788"/>
  <unicode hex="030C"/>
  <outline>
    <contour>
      <point x="416" y="1234" type="line"/>
      <point x="761" y="1449" type="line" smooth="yes"/>
      <point x="825" y="1489"/>
      <point x="881" y="1485"/>
      <point x="905" y="1456" type="curve" smooth="yes"/>
      <point x="925" y="1432"/>
      <point x="922" y="1378"/>
      <point x="865" y="1327" type="curve" smooth="yes"/>
      <point x="661" y="1143" type="line" smooth="yes"/>
      <point x="591" y="1080"/>
      <point x="538" y="1040"/>
      <point x="465" y="1040" type="curve" smooth="yes"/>
      <point x="392" y="1040"/>
      <point x="354" y="1076"/>
      <point x="325" y="1143" type="curve" smooth="yes"/>
      <point x="235" y="1347" type="line" smooth="yes"/>
      <point x="215" y="1392"/>
      <point x="225" y="1440"/>
      <point x="247" y="1456" type="curve" smooth="yes"/>
      <point x="282" y="1481"/>
      <point x="322" y="1487"/>
      <point x="359" y="1449" type="curve" smooth="yes"/>
      <point x="588" y="1214" type="line"/>
    </contour>
  </outline>
</glyph>
<glyph name="gravedoublecmb" format="2">
  <advance width="982"/>
  <unicode hex="030F"/>
  <anchor x="685" y="980" name="center"/>
  <outline>
    <contour>
      <point x="533" y="1326" type="line" smooth="yes"/>
      <point x="494" y="1437"/>
      <point x="442" y="1514"/>
      <point x="338" y="1505" type="curve" smooth="yes"/>
      <point x="249" y="1497"/>
      <point x="194" y="1422"/>
      <point x="200" y="1347" type="curve" smooth="yes"/>
      <point x="208" y="1272"/>
      <point x="247" y="1225"/>
      <point x="343" y="1167" type="curve" smooth="yes"/>
      <point x="477" y="1087" type="line" smooth="yes"/>
      <point x="510" y="1068"/>
      <point x="551" y="1064"/>
      <point x="575" y="1086" type="curve" smooth="yes"/>
      <point x="601" y="1110"/>
      <point x="595" y="1142"/>
      <point x="582" y="1180" type="curve" smooth="yes"/>
    </contour>
    <contour>
      <point x="919" y="1316" type="line" smooth="yes"/>
      <point x="888" y="1430"/>
      <point x="842" y="1510"/>
      <point x="738" y="1509" type="curve" smooth="yes"/>
      <point x="648" y="1507"/>
      <point x="588" y="1436"/>
      <point x="588" y="1361" type="curve" smooth="yes"/>
      <point x="592" y="1286"/>
      <point x="627" y="1235"/>
      <point x="719" y="1171" type="curve" smooth="yes"/>
      <point x="847" y="1082" type="line" smooth="yes"/>
      <point x="878" y="1060"/>
      <point x="919" y="1054"/>
      <point x="945" y="1074" type="curve" smooth="yes"/>
      <point x="972" y="1096"/>
      <point x="969" y="1128"/>
      <point x="958" y="1168" type="curve" smooth="yes"/>
    </contour>
  </outline>
</glyph>
<glyph name="invertedbrevecmb" format="2">
  <advance width="722"/>
  <unicode hex="0311"/>
  <outline>
    <contour>
      <point x="492.0" y="1207.0" type="curve" smooth="yes"/>
      <point x="562.0" y="1207.0"/>
      <point x="602.0" y="1181.0"/>
      <point x="627.0" y="1118.0" type="curve" smooth="yes"/>
      <point x="641.0" y="1080.0"/>
      <point x="661.0" y="1061.0"/>
      <point x="692.0" y="1061.0" type="curve" smooth="yes"/>
      <point x="737.0" y="1061.0"/>
      <point x="771.0" y="1106.0"/>
      <point x="782.0" y="1172.0" type="curve" smooth="yes"/>
      <point x="815.0" y="1355.0"/>
      <point x="713.0" y="1452.0"/>
      <point x="558.0" y="1452.0" type="curve" smooth="yes"/>
      <point x="391.0" y="1452.0"/>
      <point x="228.0" y="1356.0"/>
      <point x="162.0" y="1172.0" type="curve" smooth="yes"/>
      <point x="138.0" y="1104.0"/>
      <point x="152.0" y="1061.0"/>
      <point x="214.0" y="1061.0" type="curve" smooth="yes"/>
      <point x="244.0" y="1061.0"/>
      <point x="275.0" y="1080.0"/>
      <point x="309.0" y="1118.0" type="curve" smooth="yes"/>
      <point x="368.0" y="1181.0"/>
      <point x="422.0" y="1207.0"/>
    </contour>
  </outline>
</glyph>
<glyph name="commaturnedabovecmb" format="2">
  <advance width="449"/>
  <unicode hex="0312"/>
  <outline>
    <contour>
      <point x="456" y="1320" type="curve" smooth="yes"/>
      <point x="436" y="1320" type="line" smooth="yes"/>
      <point x="409" y="1320"/>
      <point x="402" y="1329"/>
      <point x="407" y="1346" type="curve" smooth="yes"/>
      <point x="413" y="1371"/>
      <point x="436" y="1388"/>
      <point x="556" y="1422" type="curve" smooth="yes"/>
      <point x="610.5767585259553" y="1436.8845705070787"/>
      <point x="637" y="1464"/>
      <point x="639" y="1497" type="curve" smooth="yes"/>
      <point x="642" y="1541"/>
      <point x="611" y="1569"/>
      <point x="555" y="1555" type="curve" smooth="yes"/>
      <point x="354.5141820054953" y="1505.9014323278764"/>
      <point x="238" y="1419"/>
      <point x="201" y="1283" type="curve" smooth="yes"/>
      <point x="162" y="1143"/>
      <point x="220" y="1044.0"/>
      <point x="347" y="1044" type="curve" smooth="yes"/>
      <point x="450" y="1044"/>
      <point x="543" y="1097"/>
      <point x="564" y="1173" type="curve" smooth="yes"/>
      <point x="587" y="1258"/>
      <point x="548.0" y="1320"/>
    </contour>
  </outline>
</glyph>
<glyph name="turnedcommaabovecmb" format="2">
  <advance width="420"/>
  <unicode hex="0315"/>
  <outline>
    <contour>
      <point x="279" y="1302" type="curve" smooth="yes"/>
      <point x="234" y="1170" type="line" smooth="yes"/>
      <point x="216.81961102306784" y="1119.6041923343323"/>
      <point x="219.0" y="1083.0"/>
      <point x="247" y="1065" type="curve" smooth="yes"/>
      <point x="273" y="1048"/>
      <point x="323.07475735686916" y="1062.011674819417"/>
      <point x="357" y="1090" type="curve" smooth="yes"/>
      <point x="477" y="1189" type="line" smooth="yes"/>
      <point x="575" y="1270"/>
      <point x="613.6106057861955" y="1326.495452075759"/>
      <point x="622" y="1402" type="curve" smooth="yes"/>
      <point x="630" y="1475"/>
      <point x="576" y="1519"/>
      <point x="486" y="1517" type="curve" smooth="yes"/>
      <point x="377" y="1514"/>
      <point x="318" y="1417"/>
    </contour>
  </outline>
</glyph>
<glyph name="horncmb" format="2">
  <advance width="739"/>
  <unicode hex="031B"/>
  <outline>
    <contour>
      <point x="539" y="817"/>
      <point x="777" y="932"/>
      <point x="827" y="1117" type="curve" smooth="yes"/>
      <point x="859" y="1237"/>
      <point x="826" y="1306"/>
      <point x="729" y="1306" type="curve" smooth="yes"/>
      <point x="637" y="1306"/>
      <point x="569" y="1249"/>
      <point x="542" y="1149" type="curve" smooth="yes"/>
      <point x="527" y="1093" type="line" smooth="yes"/>
      <point x="501" y="997"/>
      <point x="445" y="952"/>
      <point x="265" y="982" type="curve" smooth="yes"/>
      <point x="219" y="990"/>
      <point x="183" y="964"/>
      <point x="173" y="925" type="curve" smooth="yes"/>
      <point x="164" y="892"/>
      <point x="177" y="870"/>
      <point x="225" y="863" type="curve" smooth="yes"/>
    </contour>
  </outline>
</glyph>
<glyph name="commaaccentbelowcmb" format="2">
  <advance width="457"/>
  <unicode hex="0326"/>
  <outline>
    <contour>
      <point x="77" y="-344" type="curve" smooth="yes"/>
      <point x="97" y="-344" type="line" smooth="yes"/>
      <point x="124" y="-344"/>
      <point x="130" y="-353"/>
      <point x="126" y="-370" type="curve" smooth="yes"/>
      <point x="119" y="-395"/>
      <point x="97" y="-412"/>
      <point x="-24" y="-446" type="curve" smooth="yes"/>
      <point x="-79" y="-461"/>
      <point x="-104" y="-493"/>
      <point x="-106" y="-531" type="curve" smooth="yes"/>
      <point x="-109" y="-571"/>
      <point x="-81" y="-595"/>
      <point x="-22" y="-579" type="curve" smooth="yes"/>
      <point x="191" y="-524"/>
      <point x="285" y="-415"/>
      <point x="326" y="-261" type="curve" smooth="yes"/>
      <point x="360" y="-136"/>
      <point x="299" y="-68"/>
      <point x="186" y="-68" type="curve" smooth="yes"/>
      <point x="90" y="-68"/>
      <point x="-4" y="-128"/>
      <point x="-28" y="-217" type="curve" smooth="yes"/>
      <point x="-49" y="-295"/>
      <point x="-15" y="-344"/>
    </contour>
  </outline>
</glyph>
<glyph name="cedillacmb" format="2">
  <advance width="620"/>
  <unicode hex="0327"/>
  <outline>
    <contour>
      <point x="242" y="19" type="line"/>
      <point x="122" y="-154" type="line" smooth="yes"/>
      <point x="91" y="-198"/>
      <point x="94" y="-228"/>
      <point x="139" y="-228" type="curve" smooth="yes"/>
      <point x="171" y="-228" type="line" smooth="yes"/>
      <point x="217" y="-228"/>
      <point x="235" y="-244"/>
      <point x="226" y="-275" type="curve" smooth="yes"/>
      <point x="217" y="-310"/>
      <point x="191" y="-328"/>
      <point x="156" y="-328" type="curve" smooth="yes"/>
      <point x="125" y="-328"/>
      <point x="106" y="-321"/>
      <point x="81" y="-302" type="curve" smooth="yes"/>
      <point x="62" y="-288"/>
      <point x="45" y="-276"/>
      <point x="18" y="-276" type="curve" smooth="yes"/>
      <point x="-13" y="-276"/>
      <point x="-44" y="-294"/>
      <point x="-52" y="-325" type="curve" smooth="yes"/>
      <point x="-72" y="-398"/>
      <point x="4" y="-466"/>
      <point x="150" y="-466" type="curve" smooth="yes"/>
      <point x="328" y="-466"/>
      <point x="448" y="-401"/>
      <point x="476" y="-297" type="curve" smooth="yes"/>
      <point x="507" y="-178"/>
      <point x="443" y="-111"/>
      <point x="306" y="-111" type="curve" smooth="yes"/>
      <point x="245" y="-111"/>
      <point x="204" y="-117"/>
      <point x="165" y="-130" type="curve"/>
      <point x="254" y="-151" type="line"/>
      <point x="370" y="19" type="line"/>
    </contour>
  </outline>
</glyph>
<glyph name="ogonekcmb" format="2">
  <advance width="674"/>
  <unicode hex="0328"/>
  <outline>
    <contour>
      <point x="462" y="73" type="line"/>
      <point x="132" y="-12"/>
      <point x="-21" y="-102"/>
      <point x="-62" y="-250" type="curve" smooth="yes"/>
      <point x="-100" y="-386"/>
      <point x="-28" y="-479"/>
      <point x="143" y="-479" type="curve" smooth="yes"/>
      <point x="288" y="-479"/>
      <point x="413" y="-422"/>
      <point x="475" y="-345" type="curve" smooth="yes"/>
      <point x="520" y="-289"/>
      <point x="512" y="-231"/>
      <point x="475" y="-219" type="curve" smooth="yes"/>
      <point x="450" y="-211"/>
      <point x="428" y="-223"/>
      <point x="398" y="-245" type="curve" smooth="yes"/>
      <point x="366" y="-269"/>
      <point x="342" y="-280"/>
      <point x="314" y="-280" type="curve" smooth="yes"/>
      <point x="274" y="-280"/>
      <point x="253" y="-254"/>
      <point x="267" y="-202" type="curve" smooth="yes"/>
      <point x="287" y="-126"/>
      <point x="352" y="-65"/>
      <point x="478" y="0" type="curve"/>
    </contour>
  </outline>
</glyph>
<glyph name="acute.cap" format="2">
  <advance width="568"/>
  <anchor x="145" y="980" name="center"/>
  <outline>
    <contour>
      <point x="381" y="1335" type="curve" smooth="yes"/>
      <point x="276" y="1211" type="line" smooth="yes"/>
      <point x="240" y="1167"/>
      <point x="218" y="1124"/>
      <point x="237" y="1089" type="curve" smooth="yes"/>
      <point x="254" y="1055"/>
      <point x="307" y="1053"/>
      <point x="361" y="1069" type="curve" smooth="yes"/>
      <point x="524" y="1114" type="line" smooth="yes"/>
      <point x="646" y="1150"/>
      <point x="710" y="1192"/>
      <point x="745" y="1255" type="curve" smooth="yes"/>
      <point x="793" y="1343"/>
      <point x="759" y="1449"/>
      <point x="673" y="1472" type="curve" smooth="yes"/>
      <point x="566" y="1505"/>
      <point x="468" y="1442"/>
    </contour>
  </outline>
</glyph>
<glyph name="b.alt" format="2">
  <advance width="1240"/>
  <outline>
    <contour>
      <point x="274" y="992" type="curve" smooth="yes"/>
      <point x="60" y="277" type="line" smooth="yes"/>
      <point x="-3" y="65"/>
      <point x="54" y="0"/>
      <point x="154" y="0" type="curve" smooth="yes"/>
      <point x="216" y="0"/>
      <point x="261" y="31"/>
      <point x="292" y="62" type="curve" smooth="yes"/>
      <point x="422" y="190" type="line"/>
      <point x="328" y="267" type="line"/>
      <point x="328" y="56"/>
      <point x="451" y="-26"/>
      <point x="614" y="-26" type="curve" smooth="yes"/>
      <point x="927" y="-26"/>
      <point x="1224" y="286"/>
      <point x="1224" y="664" type="curve" smooth="yes"/>
      <point x="1224" y="857"/>
      <point x="1118" y="970"/>
      <point x="939" y="970" type="curve" smooth="yes"/>
      <point x="757" y="970"/>
      <point x="610" y="852"/>
      <point x="513" y="640" type="curve"/>
      <point x="548" y="628" type="line"/>
      <point x="723" y="1177" type="line" smooth="yes"/>
      <point x="775" y="1340"/>
      <point x="710" y="1440"/>
      <point x="540" y="1440" type="curve" smooth="yes"/>
      <point x="393" y="1440"/>
      <point x="215" y="1351"/>
      <point x="136" y="1236" type="curve" smooth="yes"/>
      <point x="95" y="1176"/>
      <point x="99" y="1120"/>
      <point x="132" y="1098" type="curve" smooth="yes"/>
      <point x="151" y="1085"/>
      <point x="178" y="1082"/>
      <point x="214" y="1100" type="curve" smooth="yes"/>
      <point x="239" y="1112"/>
      <point x="254" y="1120"/>
      <point x="271" y="1120" type="curve" smooth="yes"/>
      <point x="312" y="1120"/>
      <point x="304" y="1093"/>
    </contour>
    <contour>
      <point x="736" y="744" type="curve" smooth="yes"/>
      <point x="767" y="744"/>
      <point x="802" y="726"/>
      <point x="802" y="640" type="curve" smooth="yes"/>
      <point x="802" y="370"/>
      <point x="650" y="164"/>
      <point x="554" y="164" type="curve" smooth="yes"/>
      <point x="515" y="164"/>
      <point x="496" y="194"/>
      <point x="496" y="258" type="curve" smooth="yes"/>
      <point x="496" y="481"/>
      <point x="639" y="744"/>
    </contour>
  </outline>
</glyph>
<glyph name="breve.cap" format="2">
  <advance width="722"/>
  <outline>
    <contour>
      <point x="454" y="1295" type="curve" smooth="yes"/>
      <point x="388" y="1295"/>
      <point x="355" y="1311"/>
      <point x="327" y="1357" type="curve" smooth="yes"/>
      <point x="306" y="1392"/>
      <point x="288.81538461538463" y="1411.0"/>
      <point x="254" y="1411" type="curve" smooth="yes"/>
      <point x="209.0" y="1411.0"/>
      <point x="173" y="1374"/>
      <point x="164" y="1320" type="curve" smooth="yes"/>
      <point x="132.14078854528657" y="1143.3261910238618"/>
      <point x="233.0" y="1050.0"/>
      <point x="388" y="1050" type="curve" smooth="yes"/>
      <point x="555.0" y="1050.0"/>
      <point x="720.0840488646096" y="1141.810075622548"/>
      <point x="784" y="1320" type="curve" smooth="yes"/>
      <point x="804" y="1377"/>
      <point x="790.0" y="1411.0"/>
      <point x="747" y="1411.0" type="curve" smooth="yes"/>
      <point x="702" y="1411"/>
      <point x="676" y="1387"/>
      <point x="637" y="1354" type="curve" smooth="yes"/>
      <point x="588" y="1313"/>
      <point x="540.0" y="1295.0"/>
    </contour>
  </outline>
</glyph>
<glyph name="breveacute.cap" format="2">
  <advance width="722"/>
  <outline>
    <contour>
      <point x="522" y="1271" type="curve" smooth="yes"/>
      <point x="452" y="1271"/>
      <point x="415" y="1301"/>
      <point x="386" y="1360" type="curve" smooth="yes"/>
      <point x="369" y="1397"/>
      <point x="353" y="1417"/>
      <point x="322" y="1417" type="curve" smooth="yes"/>
      <point x="272" y="1417"/>
      <point x="233" y="1372"/>
      <point x="221" y="1306" type="curve" smooth="yes"/>
      <point x="193" y="1146"/>
      <point x="289" y="1046"/>
      <point x="461" y="1046" type="curve" smooth="yes"/>
      <point x="633" y="1046"/>
      <point x="783" y="1146"/>
      <point x="841" y="1306" type="curve" smooth="yes"/>
      <point x="865" y="1372"/>
      <point x="850" y="1417"/>
      <point x="800" y="1417" type="curve" smooth="yes"/>
      <point x="770" y="1417"/>
      <point x="741" y="1397"/>
      <point x="704" y="1360" type="curve" smooth="yes"/>
      <point x="645" y="1301"/>
      <point x="592" y="1271"/>
    </contour>
    <contour>
      <point x="619" y="1628" type="curve" smooth="yes"/>
      <point x="523" y="1502" type="line" smooth="yes"/>
      <point x="501" y="1472"/>
      <point x="482" y="1441"/>
      <point x="498" y="1417" type="curve" smooth="yes"/>
      <point x="507" y="1392"/>
      <point x="545" y="1393"/>
      <point x="585" y="1406" type="curve" smooth="yes"/>
      <point x="727" y="1463" type="line" smooth="yes"/>
      <point x="834" y="1506"/>
      <point x="888" y="1541"/>
      <point x="920" y="1607" type="curve" smooth="yes"/>
      <point x="953" y="1678"/>
      <point x="934" y="1750"/>
      <point x="859" y="1767" type="curve" smooth="yes"/>
      <point x="771" y="1790"/>
      <point x="695" y="1728"/>
    </contour>
  </outline>
</glyph>
<glyph name="breveacute" format="2">
  <advance width="683"/>
  <outline>
    <contour>
      <point x="483" y="1623" type="curve" smooth="yes"/>
      <point x="417" y="1510" type="line" smooth="yes"/>
      <point x="395" y="1472"/>
      <point x="384" y="1428"/>
      <point x="407" y="1406" type="curve" smooth="yes"/>
      <point x="422" y="1383"/>
      <point x="475" y="1385"/>
      <point x="519" y="1410" type="curve" smooth="yes"/>
      <point x="655" y="1488" type="line" smooth="yes"/>
      <point x="752" y="1543"/>
      <point x="798" y="1577"/>
      <point x="816" y="1637" type="curve" smooth="yes"/>
      <point x="840" y="1720"/>
      <point x="804" y="1794"/>
      <point x="715" y="1797" type="curve" smooth="yes"/>
      <point x="615" y="1803"/>
      <point x="546" y="1731"/>
    </contour>
    <contour>
      <point x="442" y="1275" type="curve" smooth="yes"/>
      <point x="372" y="1275"/>
      <point x="335" y="1305"/>
      <point x="306" y="1364" type="curve" smooth="yes"/>
      <point x="289" y="1401"/>
      <point x="273" y="1421"/>
      <point x="242" y="1421" type="curve" smooth="yes"/>
      <point x="203" y="1421"/>
      <point x="175" y="1376"/>
      <point x="163" y="1310" type="curve" smooth="yes"/>
      <point x="135" y="1151"/>
      <point x="228" y="1050"/>
      <point x="381" y="1050" type="curve" smooth="yes"/>
      <point x="553" y="1050"/>
      <point x="707" y="1141"/>
      <point x="761" y="1290" type="curve" smooth="yes"/>
      <point x="789" y="1367"/>
      <point x="770" y="1421"/>
      <point x="720" y="1421" type="curve" smooth="yes"/>
      <point x="690" y="1421"/>
      <point x="661" y="1401"/>
      <point x="624" y="1364" type="curve" smooth="yes"/>
      <point x="565" y="1305"/>
      <point x="512" y="1275"/>
    </contour>
  </outline>
</glyph>
<glyph name="brevegrave.cap" format="2">
  <advance width="722"/>
  <outline>
    <contour>
      <point x="522" y="1271" type="curve" smooth="yes"/>
      <point x="452" y="1271"/>
      <point x="415" y="1301"/>
      <point x="386" y="1360" type="curve" smooth="yes"/>
      <point x="369" y="1397"/>
      <point x="353" y="1417"/>
      <point x="322" y="1417" type="curve" smooth="yes"/>
      <point x="272" y="1417"/>
      <point x="233" y="1372"/>
      <point x="221" y="1306" type="curve" smooth="yes"/>
      <point x="193" y="1146"/>
      <point x="289" y="1046"/>
      <point x="461" y="1046" type="curve" smooth="yes"/>
      <point x="633" y="1046"/>
      <point x="783" y="1146"/>
      <point x="841" y="1306" type="curve" smooth="yes"/>
      <point x="865" y="1372"/>
      <point x="850" y="1417"/>
      <point x="800" y="1417" type="curve" smooth="yes"/>
      <point x="770" y="1417"/>
      <point x="741" y="1397"/>
      <point x="704" y="1360" type="curve" smooth="yes"/>
      <point x="645" y="1301"/>
      <point x="592" y="1271"/>
    </contour>
    <contour>
      <point x="655" y="1628" type="line" smooth="yes"/>
      <point x="633" y="1728"/>
      <point x="591" y="1790"/>
      <point x="489" y="1767" type="curve" smooth="yes"/>
      <point x="406" y="1750"/>
      <point x="349" y="1678"/>
      <point x="344" y="1607" type="curve" smooth="yes"/>
      <point x="340" y="1541"/>
      <point x="376" y="1506"/>
      <point x="459" y="1463" type="curve" smooth="yes"/>
      <point x="571" y="1406" type="line" smooth="yes"/>
      <point x="603" y="1393"/>
      <point x="641" y="1392"/>
      <point x="664" y="1417" type="curve" smooth="yes"/>
      <point x="692" y="1441"/>
      <point x="689" y="1472"/>
      <point x="683" y="1502" type="curve" smooth="yes"/>
    </contour>
  </outline>
</glyph>
<glyph name="brevegrave" format="2">
  <advance width="683"/>
  <outline>
    <contour>
      <point x="442" y="1275" type="curve" smooth="yes"/>
      <point x="372" y="1275"/>
      <point x="335" y="1305"/>
      <point x="306" y="1364" type="curve" smooth="yes"/>
      <point x="289" y="1401"/>
      <point x="273" y="1421"/>
      <point x="242" y="1421" type="curve" smooth="yes"/>
      <point x="203" y="1421"/>
      <point x="175" y="1376"/>
      <point x="163" y="1310" type="curve" smooth="yes"/>
      <point x="135" y="1151"/>
      <point x="228" y="1050"/>
      <point x="381" y="1050" type="curve" smooth="yes"/>
      <point x="553" y="1050"/>
      <point x="707" y="1141"/>
      <point x="761" y="1290" type="curve" smooth="yes"/>
      <point x="789" y="1367"/>
      <point x="770" y="1421"/>
      <point x="720" y="1421" type="curve" smooth="yes"/>
      <point x="690" y="1421"/>
      <point x="661" y="1401"/>
      <point x="624" y="1364" type="curve" smooth="yes"/>
      <point x="565" y="1305"/>
      <point x="512" y="1275"/>
    </contour>
    <contour>
      <point x="563" y="1643" type="line" smooth="yes"/>
      <point x="553" y="1768"/>
      <point x="479.0" y="1824.0"/>
      <point x="391" y="1815" type="curve" smooth="yes"/>
      <point x="300" y="1805"/>
      <point x="256" y="1747"/>
      <point x="257" y="1679" type="curve" smooth="yes"/>
      <point x="258" y="1616"/>
      <point x="292" y="1569"/>
      <point x="365" y="1490" type="curve" smooth="yes"/>
      <point x="425" y="1425" type="line" smooth="yes"/>
      <point x="462" y="1385"/>
      <point x="501" y="1362"/>
      <point x="539" y="1384" type="curve" smooth="yes"/>
      <point x="573" y="1403"/>
      <point x="580" y="1433"/>
      <point x="575" y="1496" type="curve" smooth="yes"/>
    </contour>
  </outline>
</glyph>
<glyph name="brevehook.cap" format="2">
  <advance width="722"/>
  <outline>
    <contour>
      <point x="542" y="1271" type="curve" smooth="yes"/>
      <point x="472" y="1271"/>
      <point x="435" y="1301"/>
      <point x="406" y="1360" type="curve" smooth="yes"/>
      <point x="389" y="1397"/>
      <point x="373" y="1417"/>
      <point x="342" y="1417" type="curve" smooth="yes"/>
      <point x="292" y="1417"/>
      <point x="253" y="1372"/>
      <point x="241" y="1306" type="curve" smooth="yes"/>
      <point x="213" y="1146"/>
      <point x="309" y="1046"/>
      <point x="481" y="1046" type="curve" smooth="yes"/>
      <point x="653" y="1046"/>
      <point x="803" y="1146"/>
      <point x="861" y="1306" type="curve" smooth="yes"/>
      <point x="885" y="1372"/>
      <point x="870" y="1417"/>
      <point x="820" y="1417" type="curve" smooth="yes"/>
      <point x="790" y="1417"/>
      <point x="761" y="1397"/>
      <point x="724" y="1360" type="curve" smooth="yes"/>
      <point x="665" y="1301"/>
      <point x="612" y="1271"/>
    </contour>
    <contour>
      <point x="481" y="1392"/>
      <point x="466" y="1413"/>
      <point x="475" y="1449" type="curve" smooth="yes"/>
      <point x="482" y="1476"/>
      <point x="502" y="1501"/>
      <point x="553" y="1509" type="curve" smooth="yes"/>
      <point x="638" y="1522"/>
      <point x="654" y="1559"/>
      <point x="666" y="1605" type="curve" smooth="yes"/>
      <point x="677" y="1644"/>
      <point x="668" y="1665"/>
      <point x="634" y="1665" type="curve" smooth="yes"/>
      <point x="604" y="1665"/>
      <point x="582" y="1651"/>
      <point x="575" y="1625" type="curve" smooth="yes"/>
      <point x="572" y="1612" type="line" smooth="yes"/>
      <point x="560" y="1567"/>
      <point x="520" y="1543"/>
      <point x="461" y="1543" type="curve" smooth="yes"/>
      <point x="408" y="1543"/>
      <point x="382" y="1573"/>
      <point x="396" y="1623" type="curve" smooth="yes"/>
      <point x="418" y="1705"/>
      <point x="534" y="1772"/>
      <point x="672" y="1772" type="curve" smooth="yes"/>
      <point x="840" y="1772"/>
      <point x="897" y="1703"/>
      <point x="870" y="1602" type="curve" smooth="yes"/>
      <point x="836" y="1473"/>
      <point x="698" y="1392"/>
      <point x="528" y="1392" type="curve" smooth="yes"/>
    </contour>
  </outline>
</glyph>
<glyph name="brevehook" format="2">
  <advance width="683"/>
  <outline>
    <contour>
      <point x="442" y="1275" type="curve" smooth="yes"/>
      <point x="372" y="1275"/>
      <point x="335" y="1305"/>
      <point x="306" y="1364" type="curve" smooth="yes"/>
      <point x="289" y="1401"/>
      <point x="273" y="1421"/>
      <point x="242" y="1421" type="curve" smooth="yes"/>
      <point x="203" y="1421"/>
      <point x="175" y="1376"/>
      <point x="163" y="1310" type="curve" smooth="yes"/>
      <point x="135" y="1151"/>
      <point x="228" y="1050"/>
      <point x="381" y="1050" type="curve" smooth="yes"/>
      <point x="553" y="1050"/>
      <point x="707" y="1141"/>
      <point x="761" y="1290" type="curve" smooth="yes"/>
      <point x="789" y="1367"/>
      <point x="770" y="1421"/>
      <point x="720" y="1421" type="curve" smooth="yes"/>
      <point x="690" y="1421"/>
      <point x="661" y="1401"/>
      <point x="624" y="1364" type="curve" smooth="yes"/>
      <point x="565" y="1305"/>
      <point x="512" y="1275"/>
    </contour>
    <contour>
      <point x="347" y="1384"/>
      <point x="329" y="1410"/>
      <point x="341" y="1454.0" type="curve" smooth="yes"/>
      <point x="348" y="1479"/>
      <point x="370" y="1499"/>
      <point x="423" y="1507.0" type="curve" smooth="yes"/>
      <point x="514" y="1522.0"/>
      <point x="530" y="1560.0"/>
      <point x="543" y="1609.0" type="curve" smooth="yes"/>
      <point x="554" y="1650.0"/>
      <point x="546" y="1673.0"/>
      <point x="511" y="1673.0" type="curve" smooth="yes"/>
      <point x="478" y="1673.0"/>
      <point x="455" y="1658.0"/>
      <point x="447" y="1631.0" type="curve" smooth="yes"/>
      <point x="444" y="1617.0" type="line" smooth="yes"/>
      <point x="431" y="1569.0"/>
      <point x="389" y="1544.0"/>
      <point x="327" y="1544.0" type="curve" smooth="yes"/>
      <point x="271.0" y="1544.0"/>
      <point x="240" y="1583"/>
      <point x="257" y="1648.0" type="curve" smooth="yes"/>
      <point x="275.0" y="1718.0"/>
      <point x="391.0" y="1786.0"/>
      <point x="550" y="1786.0" type="curve" smooth="yes"/>
      <point x="726" y="1786"/>
      <point x="793" y="1697"/>
      <point x="760" y="1576.0" type="curve" smooth="yes"/>
      <point x="727" y="1454"/>
      <point x="567.0" y="1384.0"/>
      <point x="397" y="1384.0" type="curve" smooth="yes"/>
    </contour>
  </outline>
</glyph>
<glyph name="brevetilde.cap" format="2">
  <advance width="722"/>
  <outline>
    <contour>
      <point x="542" y="1271" type="curve" smooth="yes"/>
      <point x="472" y="1271"/>
      <point x="435" y="1301"/>
      <point x="406" y="1360" type="curve" smooth="yes"/>
      <point x="389" y="1397"/>
      <point x="373" y="1417"/>
      <point x="342" y="1417" type="curve" smooth="yes"/>
      <point x="292" y="1417"/>
      <point x="253" y="1372"/>
      <point x="241" y="1306" type="curve" smooth="yes"/>
      <point x="213" y="1146"/>
      <point x="309" y="1046"/>
      <point x="481" y="1046" type="curve" smooth="yes"/>
      <point x="653" y="1046"/>
      <point x="803" y="1146"/>
      <point x="861" y="1306" type="curve" smooth="yes"/>
      <point x="885" y="1372"/>
      <point x="870" y="1417"/>
      <point x="820" y="1417" type="curve" smooth="yes"/>
      <point x="790" y="1417"/>
      <point x="761" y="1397"/>
      <point x="724" y="1360" type="curve" smooth="yes"/>
      <point x="665" y="1301"/>
      <point x="612" y="1271"/>
    </contour>
    <contour>
      <point x="562" y="1539"/>
      <point x="615" y="1451"/>
      <point x="727" y="1451" type="curve" smooth="yes"/>
      <point x="819" y="1451"/>
      <point x="915" y="1522"/>
      <point x="951" y="1657" type="curve" smooth="yes"/>
      <point x="962" y="1699"/>
      <point x="948" y="1724"/>
      <point x="917" y="1727" type="curve" smooth="yes"/>
      <point x="882" y="1730"/>
      <point x="862" y="1719"/>
      <point x="829" y="1690" type="curve" smooth="yes"/>
      <point x="800" y="1662"/>
      <point x="780" y="1651"/>
      <point x="761" y="1651" type="curve" smooth="yes"/>
      <point x="694" y="1651"/>
      <point x="643" y="1739"/>
      <point x="531" y="1739" type="curve" smooth="yes"/>
      <point x="437" y="1739"/>
      <point x="342" y="1667"/>
      <point x="306" y="1533" type="curve" smooth="yes"/>
      <point x="295" y="1491"/>
      <point x="309" y="1466"/>
      <point x="340" y="1463" type="curve" smooth="yes"/>
      <point x="376" y="1460"/>
      <point x="395" y="1471"/>
      <point x="428" y="1500" type="curve" smooth="yes"/>
      <point x="456" y="1528"/>
      <point x="477" y="1539"/>
      <point x="495" y="1539" type="curve" smooth="yes"/>
    </contour>
  </outline>
</glyph>
<glyph name="brevetilde" format="2">
  <advance width="683"/>
  <outline>
    <contour>
      <point x="442" y="1275" type="curve" smooth="yes"/>
      <point x="372" y="1275"/>
      <point x="335" y="1305"/>
      <point x="306" y="1364" type="curve" smooth="yes"/>
      <point x="289" y="1401"/>
      <point x="273" y="1421"/>
      <point x="242" y="1421" type="curve" smooth="yes"/>
      <point x="203" y="1421"/>
      <point x="175" y="1376"/>
      <point x="163" y="1310" type="curve" smooth="yes"/>
      <point x="135" y="1151"/>
      <point x="228" y="1050"/>
      <point x="381" y="1050" type="curve" smooth="yes"/>
      <point x="553" y="1050"/>
      <point x="707" y="1141"/>
      <point x="761" y="1290" type="curve" smooth="yes"/>
      <point x="789" y="1367"/>
      <point x="770" y="1421"/>
      <point x="720" y="1421" type="curve" smooth="yes"/>
      <point x="690" y="1421"/>
      <point x="661" y="1401"/>
      <point x="624" y="1364" type="curve" smooth="yes"/>
      <point x="565" y="1305"/>
      <point x="512" y="1275"/>
    </contour>
    <contour>
      <point x="510" y="1566.0"/>
      <point x="563" y="1477.0"/>
      <point x="678" y="1477.0" type="curve" smooth="yes"/>
      <point x="776" y="1477.0"/>
      <point x="875" y="1555.0"/>
      <point x="915" y="1701.0" type="curve" smooth="yes"/>
      <point x="931" y="1761.0"/>
      <point x="919" y="1791.0"/>
      <point x="871" y="1791.0" type="curve" smooth="yes"/>
      <point x="837" y="1791.0"/>
      <point x="813" y="1779.0"/>
      <point x="791" y="1748.0" type="curve" smooth="yes"/>
      <point x="765" y="1708.0"/>
      <point x="740" y="1689.0"/>
      <point x="704" y="1689.0" type="curve" smooth="yes"/>
      <point x="637" y="1689.0"/>
      <point x="585" y="1778.0"/>
      <point x="470" y="1778.0" type="curve" smooth="yes"/>
      <point x="371" y="1778.0"/>
      <point x="272" y="1700.0"/>
      <point x="233" y="1555.0" type="curve" smooth="yes"/>
      <point x="217" y="1495.0"/>
      <point x="229" y="1464.0"/>
      <point x="277" y="1464.0" type="curve" smooth="yes"/>
      <point x="311" y="1464.0"/>
      <point x="334" y="1476.0"/>
      <point x="357" y="1508.0" type="curve" smooth="yes"/>
      <point x="384" y="1548.0"/>
      <point x="408" y="1566.0"/>
      <point x="443" y="1566.0" type="curve" smooth="yes"/>
    </contour>
  </outline>
</glyph>
<glyph name="caron.cap" format="2">
  <advance width="800"/>
  <outline>
    <contour>
      <point x="378.0" y="1238.0" type="line"/>
      <point x="710.0" y="1423.0" type="line" smooth="yes"/>
      <point x="775.0" y="1459.0"/>
      <point x="830.0" y="1459.0"/>
      <point x="854.0" y="1430.0" type="curve" smooth="yes"/>
      <point x="874.0" y="1406.0"/>
      <point x="874.0" y="1350.0"/>
      <point x="814.0" y="1301.0" type="curve" smooth="yes"/>
      <point x="623.0" y="1147.0" type="line" smooth="yes"/>
      <point x="550.0" y="1088.0"/>
      <point x="500.0" y="1044.0"/>
      <point x="427.0" y="1044.0" type="curve" smooth="yes"/>
      <point x="354.0" y="1044.0"/>
      <point x="323.0" y="1086.0"/>
      <point x="287.0" y="1147.0" type="curve" smooth="yes"/>
      <point x="184.0" y="1321.0" type="line" smooth="yes"/>
      <point x="159.0" y="1363.0"/>
      <point x="174.0" y="1414.0"/>
      <point x="196.0" y="1430.0" type="curve" smooth="yes"/>
      <point x="231.0" y="1455.0"/>
      <point x="267.0" y="1457.0"/>
      <point x="308.0" y="1423.0" type="curve" smooth="yes"/>
      <point x="550.0" y="1218.0" type="line"/>
    </contour>
  </outline>
</glyph>
<glyph name="circumflex.cap" format="2">
  <advance width="800"/>
  <outline>
    <contour>
      <point x="654" y="1264" type="line"/>
      <point x="322" y="1079" type="line" smooth="yes"/>
      <point x="257" y="1043"/>
      <point x="202" y="1043"/>
      <point x="178" y="1072" type="curve" smooth="yes"/>
      <point x="158" y="1096"/>
      <point x="158" y="1152"/>
      <point x="218" y="1201" type="curve" smooth="yes"/>
      <point x="409" y="1355" type="line" smooth="yes"/>
      <point x="482" y="1414"/>
      <point x="532" y="1458"/>
      <point x="605" y="1458" type="curve" smooth="yes"/>
      <point x="678" y="1458"/>
      <point x="709" y="1416"/>
      <point x="745" y="1355" type="curve" smooth="yes"/>
      <point x="848" y="1181" type="line" smooth="yes"/>
      <point x="873" y="1139"/>
      <point x="858" y="1088"/>
      <point x="836" y="1072" type="curve" smooth="yes"/>
      <point x="801" y="1047"/>
      <point x="765" y="1045"/>
      <point x="724" y="1079" type="curve" smooth="yes"/>
      <point x="482" y="1284" type="line"/>
    </contour>
  </outline>
</glyph>
<glyph name="circumflexacute.cap" format="2">
  <advance width="800"/>
  <anchor x="404.0" y="980" name="center"/>
  <outline>
    <contour>
      <point x="572" y="1254" type="line"/>
      <point x="232" y="1074" type="line" smooth="yes"/>
      <point x="168" y="1040"/>
      <point x="120" y="1039"/>
      <point x="97" y="1067" type="curve" smooth="yes"/>
      <point x="78" y="1090"/>
      <point x="81" y="1138"/>
      <point x="138" y="1186" type="curve" smooth="yes"/>
      <point x="334" y="1350" type="line" smooth="yes"/>
      <point x="407" y="1411"/>
      <point x="456" y="1453"/>
      <point x="529" y="1453" type="curve" smooth="yes"/>
      <point x="602" y="1453"/>
      <point x="629" y="1411"/>
      <point x="670" y="1350" type="curve" smooth="yes"/>
      <point x="778" y="1186" type="line" smooth="yes"/>
      <point x="809" y="1138"/>
      <point x="786" y="1090"/>
      <point x="755" y="1067" type="curve" smooth="yes"/>
      <point x="716" y="1039"/>
      <point x="670" y="1040"/>
      <point x="624" y="1074" type="curve" smooth="yes"/>
      <point x="380" y="1254" type="line"/>
    </contour>
    <contour>
      <point x="890" y="1519" type="curve" smooth="yes"/>
      <point x="794" y="1393" type="line" smooth="yes"/>
      <point x="772" y="1363"/>
      <point x="753" y="1332"/>
      <point x="768" y="1308" type="curve" smooth="yes"/>
      <point x="778" y="1283"/>
      <point x="816" y="1284"/>
      <point x="856" y="1297" type="curve" smooth="yes"/>
      <point x="998" y="1354" type="line" smooth="yes"/>
      <point x="1104" y="1397"/>
      <point x="1159" y="1432"/>
      <point x="1190" y="1498" type="curve" smooth="yes"/>
      <point x="1223" y="1569"/>
      <point x="1205" y="1641"/>
      <point x="1130" y="1658" type="curve" smooth="yes"/>
      <point x="1041" y="1681"/>
      <point x="966" y="1619"/>
    </contour>
  </outline>
</glyph>
<glyph name="circumflexacute" format="2">
  <advance width="856"/>
  <anchor x="483" y="980" name="center"/>
  <outline>
    <contour>
      <point x="654" y="1247" type="line"/>
      <point x="324" y="1077" type="line" smooth="yes"/>
      <point x="255" y="1041"/>
      <point x="203" y="1041"/>
      <point x="179" y="1070" type="curve" smooth="yes"/>
      <point x="159" y="1094"/>
      <point x="158" y="1155"/>
      <point x="220" y="1199" type="curve" smooth="yes"/>
      <point x="410" y="1333" type="line" smooth="yes"/>
      <point x="488" y="1388"/>
      <point x="533" y="1436"/>
      <point x="606" y="1436" type="curve" smooth="yes"/>
      <point x="679" y="1436"/>
      <point x="702" y="1392"/>
      <point x="746" y="1333" type="curve" smooth="yes"/>
      <point x="860" y="1179" type="line" smooth="yes"/>
      <point x="888" y="1141"/>
      <point x="877" y="1091"/>
      <point x="847" y="1070" type="curve" smooth="yes"/>
      <point x="810" y="1043"/>
      <point x="769" y="1045"/>
      <point x="726" y="1077" type="curve" smooth="yes"/>
      <point x="482" y="1257" type="line"/>
    </contour>
    <contour>
      <point x="891" y="1525" type="curve" smooth="yes"/>
      <point x="829" y="1399" type="line" smooth="yes"/>
      <point x="811" y="1363"/>
      <point x="796" y="1327"/>
      <point x="822" y="1301" type="curve" smooth="yes"/>
      <point x="846" y="1277"/>
      <point x="882" y="1284"/>
      <point x="923" y="1305" type="curve" smooth="yes"/>
      <point x="1052" y="1369" type="line" smooth="yes"/>
      <point x="1156" y="1420"/>
      <point x="1203" y="1460"/>
      <point x="1221" y="1522" type="curve" smooth="yes"/>
      <point x="1245" y="1604"/>
      <point x="1210" y="1679"/>
      <point x="1113" y="1684" type="curve" smooth="yes"/>
      <point x="1027" y="1688"/>
      <point x="943" y="1631"/>
    </contour>
  </outline>
</glyph>
<glyph name="circumflexgrave.cap" format="2">
  <advance width="800"/>
  <anchor x="442.0" y="980" name="center"/>
  <outline>
    <contour>
      <point x="612" y="1254" type="line"/>
      <point x="272" y="1074" type="line" smooth="yes"/>
      <point x="208" y="1040"/>
      <point x="160" y="1039"/>
      <point x="137" y="1067" type="curve" smooth="yes"/>
      <point x="118" y="1090"/>
      <point x="121" y="1138"/>
      <point x="178" y="1186" type="curve" smooth="yes"/>
      <point x="374" y="1350" type="line" smooth="yes"/>
      <point x="447" y="1411"/>
      <point x="496" y="1453"/>
      <point x="569" y="1453" type="curve" smooth="yes"/>
      <point x="642" y="1453"/>
      <point x="669" y="1411"/>
      <point x="710" y="1350" type="curve" smooth="yes"/>
      <point x="818" y="1186" type="line" smooth="yes"/>
      <point x="849" y="1138"/>
      <point x="826" y="1090"/>
      <point x="795" y="1067" type="curve" smooth="yes"/>
      <point x="756" y="1039"/>
      <point x="710" y="1040"/>
      <point x="664" y="1074" type="curve" smooth="yes"/>
      <point x="420" y="1254" type="line"/>
    </contour>
    <contour>
      <point x="1009" y="1516" type="line" smooth="yes"/>
      <point x="1007" y="1623"/>
      <point x="979" y="1695"/>
      <point x="881" y="1689" type="curve" smooth="yes"/>
      <point x="799" y="1686"/>
      <point x="731" y="1621"/>
      <point x="714" y="1549" type="curve" smooth="yes"/>
      <point x="698" y="1481"/>
      <point x="725" y="1439"/>
      <point x="796" y="1380" type="curve" smooth="yes"/>
      <point x="889" y="1302" type="line" smooth="yes"/>
      <point x="918" y="1283"/>
      <point x="953" y="1276"/>
      <point x="979" y="1298" type="curve" smooth="yes"/>
      <point x="1010" y="1318"/>
      <point x="1013" y="1349"/>
      <point x="1013" y="1382" type="curve" smooth="yes"/>
    </contour>
  </outline>
</glyph>
<glyph name="circumflexgrave" format="2">
  <advance width="856"/>
  <outline>
    <contour>
      <point x="654" y="1247" type="line"/>
      <point x="324" y="1077" type="line" smooth="yes"/>
      <point x="255" y="1041"/>
      <point x="203" y="1041"/>
      <point x="179" y="1070" type="curve" smooth="yes"/>
      <point x="159" y="1094"/>
      <point x="158" y="1155"/>
      <point x="220" y="1199" type="curve" smooth="yes"/>
      <point x="410" y="1333" type="line" smooth="yes"/>
      <point x="488" y="1388"/>
      <point x="533" y="1436"/>
      <point x="606" y="1436" type="curve" smooth="yes"/>
      <point x="679" y="1436"/>
      <point x="702" y="1392"/>
      <point x="746" y="1333" type="curve" smooth="yes"/>
      <point x="860" y="1179" type="line" smooth="yes"/>
      <point x="888" y="1141"/>
      <point x="877" y="1091"/>
      <point x="847" y="1070" type="curve" smooth="yes"/>
      <point x="810" y="1043"/>
      <point x="769" y="1045"/>
      <point x="726" y="1077" type="curve" smooth="yes"/>
      <point x="482" y="1257" type="line"/>
    </contour>
    <contour>
      <point x="1020" y="1522" type="line" smooth="yes"/>
      <point x="1010" y="1647"/>
      <point x="936.0" y="1703.0"/>
      <point x="848" y="1694" type="curve" smooth="yes"/>
      <point x="757" y="1684"/>
      <point x="713" y="1626"/>
      <point x="714" y="1558" type="curve" smooth="yes"/>
      <point x="715" y="1495"/>
      <point x="749" y="1448"/>
      <point x="822" y="1369" type="curve" smooth="yes"/>
      <point x="882" y="1304" type="line" smooth="yes"/>
      <point x="919" y="1264"/>
      <point x="958" y="1241"/>
      <point x="996" y="1263" type="curve" smooth="yes"/>
      <point x="1030" y="1282"/>
      <point x="1037" y="1312"/>
      <point x="1032" y="1375" type="curve" smooth="yes"/>
    </contour>
  </outline>
</glyph>
<glyph name="circumflexhook.cap" format="2">
  <advance width="800"/>
  <anchor x="405.0" y="980" name="center"/>
  <outline>
    <contour>
      <point x="572" y="1254" type="line"/>
      <point x="232" y="1074" type="line" smooth="yes"/>
      <point x="168" y="1040"/>
      <point x="120" y="1039"/>
      <point x="97" y="1067" type="curve" smooth="yes"/>
      <point x="78" y="1090"/>
      <point x="81" y="1138"/>
      <point x="138" y="1186" type="curve" smooth="yes"/>
      <point x="334" y="1350" type="line" smooth="yes"/>
      <point x="407" y="1411"/>
      <point x="456" y="1453"/>
      <point x="529" y="1453" type="curve" smooth="yes"/>
      <point x="602" y="1453"/>
      <point x="629" y="1411"/>
      <point x="670" y="1350" type="curve" smooth="yes"/>
      <point x="778" y="1186" type="line" smooth="yes"/>
      <point x="809" y="1138"/>
      <point x="786" y="1090"/>
      <point x="755" y="1067" type="curve" smooth="yes"/>
      <point x="716" y="1039"/>
      <point x="670" y="1040"/>
      <point x="624" y="1074" type="curve" smooth="yes"/>
      <point x="380" y="1254" type="line"/>
    </contour>
    <contour>
      <point x="836" y="1235"/>
      <point x="820" y="1258"/>
      <point x="830" y="1294" type="curve" smooth="yes"/>
      <point x="837" y="1323"/>
      <point x="858" y="1349"/>
      <point x="913" y="1358" type="curve" smooth="yes"/>
      <point x="1008" y="1372"/>
      <point x="1024" y="1415"/>
      <point x="1038" y="1468" type="curve" smooth="yes"/>
      <point x="1049" y="1508"/>
      <point x="1040" y="1529"/>
      <point x="1003" y="1529" type="curve" smooth="yes"/>
      <point x="970" y="1529"/>
      <point x="945" y="1513"/>
      <point x="938" y="1486" type="curve" smooth="yes"/>
      <point x="934" y="1471" type="line" smooth="yes"/>
      <point x="920" y="1418"/>
      <point x="877" y="1391"/>
      <point x="812" y="1391" type="curve" smooth="yes"/>
      <point x="756" y="1391"/>
      <point x="725" y="1422"/>
      <point x="740" y="1477" type="curve" smooth="yes"/>
      <point x="764" y="1567"/>
      <point x="892" y="1641"/>
      <point x="1043" y="1641" type="curve" smooth="yes"/>
      <point x="1225" y="1641"/>
      <point x="1289" y="1567"/>
      <point x="1260" y="1460" type="curve" smooth="yes"/>
      <point x="1223" y="1321"/>
      <point x="1073" y="1235"/>
      <point x="887" y="1235" type="curve" smooth="yes"/>
    </contour>
  </outline>
</glyph>
<glyph name="circumflexhook" format="2">
  <advance width="856"/>
  <outline>
    <contour>
      <point x="654" y="1247" type="line"/>
      <point x="324" y="1077" type="line" smooth="yes"/>
      <point x="255" y="1041"/>
      <point x="203" y="1041"/>
      <point x="179" y="1070" type="curve" smooth="yes"/>
      <point x="159" y="1094"/>
      <point x="158" y="1155"/>
      <point x="220" y="1199" type="curve" smooth="yes"/>
      <point x="410" y="1333" type="line" smooth="yes"/>
      <point x="488" y="1388"/>
      <point x="533" y="1436"/>
      <point x="606" y="1436" type="curve" smooth="yes"/>
      <point x="679" y="1436"/>
      <point x="702" y="1392"/>
      <point x="746" y="1333" type="curve" smooth="yes"/>
      <point x="860" y="1179" type="line" smooth="yes"/>
      <point x="888" y="1141"/>
      <point x="877" y="1091"/>
      <point x="847" y="1070" type="curve" smooth="yes"/>
      <point x="810" y="1043"/>
      <point x="769" y="1045"/>
      <point x="726" y="1077" type="curve" smooth="yes"/>
      <point x="482" y="1257" type="line"/>
    </contour>
    <contour>
      <point x="827" y="1271"/>
      <point x="809" y="1297"/>
      <point x="821" y="1341.0" type="curve" smooth="yes"/>
      <point x="828" y="1366"/>
      <point x="850" y="1386"/>
      <point x="903" y="1394.0" type="curve" smooth="yes"/>
      <point x="994" y="1409.0"/>
      <point x="1010" y="1447.0"/>
      <point x="1023" y="1496.0" type="curve" smooth="yes"/>
      <point x="1034" y="1537.0"/>
      <point x="1026" y="1560.0"/>
      <point x="991" y="1560.0" type="curve" smooth="yes"/>
      <point x="958" y="1560.0"/>
      <point x="935" y="1545.0"/>
      <point x="927" y="1518.0" type="curve" smooth="yes"/>
      <point x="924" y="1504.0" type="line" smooth="yes"/>
      <point x="911" y="1456.0"/>
      <point x="869" y="1431.0"/>
      <point x="807" y="1431.0" type="curve" smooth="yes"/>
      <point x="751.0" y="1431.0"/>
      <point x="720" y="1470"/>
      <point x="737" y="1535.0" type="curve" smooth="yes"/>
      <point x="755.0" y="1605.0"/>
      <point x="871.0" y="1673.0"/>
      <point x="1030" y="1673.0" type="curve" smooth="yes"/>
      <point x="1206" y="1673"/>
      <point x="1273" y="1584"/>
      <point x="1240" y="1463.0" type="curve" smooth="yes"/>
      <point x="1207" y="1341"/>
      <point x="1047.0" y="1271.0"/>
      <point x="877" y="1271.0" type="curve" smooth="yes"/>
    </contour>
  </outline>
</glyph>
<glyph name="circumflextilde.cap" format="2">
  <advance width="804"/>
  <outline>
    <contour>
      <point x="687" y="1226" type="line"/>
      <point x="354" y="1073" type="line" smooth="yes"/>
      <point x="287" y="1043"/>
      <point x="242" y="1038"/>
      <point x="219" y="1066" type="curve" smooth="yes"/>
      <point x="200" y="1089"/>
      <point x="200" y="1141"/>
      <point x="260" y="1185" type="curve" smooth="yes"/>
      <point x="448" y="1322" type="line" smooth="yes"/>
      <point x="526" y="1378"/>
      <point x="571" y="1425"/>
      <point x="644" y="1425" type="curve" smooth="yes"/>
      <point x="717" y="1425"/>
      <point x="736" y="1378"/>
      <point x="784" y="1322" type="curve" smooth="yes"/>
      <point x="900" y="1185" type="line" smooth="yes"/>
      <point x="936" y="1141"/>
      <point x="908" y="1089"/>
      <point x="877" y="1066" type="curve" smooth="yes"/>
      <point x="838" y="1038"/>
      <point x="795" y="1043"/>
      <point x="746" y="1073" type="curve" smooth="yes"/>
      <point x="495" y="1226" type="line"/>
    </contour>
    <contour>
      <point x="635" y="1525"/>
      <point x="686" y="1442"/>
      <point x="799" y="1442" type="curve" smooth="yes"/>
      <point x="895" y="1442"/>
      <point x="993" y="1515"/>
      <point x="1029" y="1651" type="curve" smooth="yes"/>
      <point x="1044" y="1707"/>
      <point x="1032" y="1735"/>
      <point x="985" y="1735" type="curve" smooth="yes"/>
      <point x="952" y="1735"/>
      <point x="929" y="1724"/>
      <point x="907" y="1695" type="curve" smooth="yes"/>
      <point x="883" y="1657"/>
      <point x="858" y="1640"/>
      <point x="823" y="1640" type="curve" smooth="yes"/>
      <point x="757" y="1640"/>
      <point x="706" y="1723"/>
      <point x="593" y="1723" type="curve" smooth="yes"/>
      <point x="496" y="1723"/>
      <point x="399" y="1650"/>
      <point x="363" y="1515" type="curve" smooth="yes"/>
      <point x="348" y="1460"/>
      <point x="360" y="1430"/>
      <point x="407" y="1430" type="curve" smooth="yes"/>
      <point x="440" y="1430"/>
      <point x="463" y="1441"/>
      <point x="485" y="1471" type="curve" smooth="yes"/>
      <point x="510" y="1509"/>
      <point x="535" y="1525"/>
      <point x="569" y="1525" type="curve" smooth="yes"/>
    </contour>
  </outline>
</glyph>
<glyph name="circumflextilde" format="2">
  <advance width="856"/>
  <outline>
    <contour>
      <point x="654" y="1247" type="line"/>
      <point x="324" y="1077" type="line" smooth="yes"/>
      <point x="255" y="1041"/>
      <point x="203" y="1041"/>
      <point x="179" y="1070" type="curve" smooth="yes"/>
      <point x="159" y="1094"/>
      <point x="158" y="1155"/>
      <point x="220" y="1199" type="curve" smooth="yes"/>
      <point x="410" y="1333" type="line" smooth="yes"/>
      <point x="488" y="1388"/>
      <point x="533" y="1436"/>
      <point x="606" y="1436" type="curve" smooth="yes"/>
      <point x="679" y="1436"/>
      <point x="702" y="1392"/>
      <point x="746" y="1333" type="curve" smooth="yes"/>
      <point x="860" y="1179" type="line" smooth="yes"/>
      <point x="888" y="1141"/>
      <point x="877" y="1091"/>
      <point x="847" y="1070" type="curve" smooth="yes"/>
      <point x="810" y="1043"/>
      <point x="769" y="1045"/>
      <point x="726" y="1077" type="curve" smooth="yes"/>
      <point x="482" y="1257" type="line"/>
    </contour>
    <contour>
      <point x="619" y="1536.0"/>
      <point x="672" y="1447.0"/>
      <point x="787" y="1447.0" type="curve" smooth="yes"/>
      <point x="885" y="1447.0"/>
      <point x="984" y="1525.0"/>
      <point x="1024" y="1671.0" type="curve" smooth="yes"/>
      <point x="1040" y="1731.0"/>
      <point x="1028" y="1761.0"/>
      <point x="980" y="1761.0" type="curve" smooth="yes"/>
      <point x="946" y="1761.0"/>
      <point x="922" y="1749.0"/>
      <point x="900" y="1718.0" type="curve" smooth="yes"/>
      <point x="874" y="1678.0"/>
      <point x="849" y="1659.0"/>
      <point x="813" y="1659.0" type="curve" smooth="yes"/>
      <point x="746" y="1659.0"/>
      <point x="694" y="1748.0"/>
      <point x="579" y="1748.0" type="curve" smooth="yes"/>
      <point x="480" y="1748.0"/>
      <point x="381" y="1670.0"/>
      <point x="342" y="1525.0" type="curve" smooth="yes"/>
      <point x="326" y="1465.0"/>
      <point x="338" y="1434.0"/>
      <point x="386" y="1434.0" type="curve" smooth="yes"/>
      <point x="420" y="1434.0"/>
      <point x="443" y="1446.0"/>
      <point x="466" y="1478.0" type="curve" smooth="yes"/>
      <point x="493" y="1518.0"/>
      <point x="517" y="1536.0"/>
      <point x="552" y="1536.0" type="curve" smooth="yes"/>
    </contour>
  </outline>
</glyph>
<glyph name="dotbelowcmb" format="2">
  <advance width="555"/>
  <outline>
    <contour>
      <point x="129" y="-443" type="curve" smooth="yes"/>
      <point x="274" y="-443"/>
      <point x="375" y="-373"/>
      <point x="407" y="-254" type="curve" smooth="yes"/>
      <point x="438" y="-138"/>
      <point x="375" y="-68"/>
      <point x="230" y="-68" type="curve" smooth="yes"/>
      <point x="87" y="-68"/>
      <point x="-17" y="-138"/>
      <point x="-48" y="-254" type="curve" smooth="yes"/>
      <point x="-80" y="-375"/>
      <point x="-14" y="-443"/>
    </contour>
  </outline>
</glyph>
<glyph name="fhook" format="2">
  <advance width="824"/>
  <outline>
    <contour>
      <point x="497" y="1129" type="curve" smooth="yes"/>
      <point x="503" y="1163"/>
      <point x="518.7857142857143" y="1189.0"/>
      <point x="558" y="1189" type="curve" smooth="yes"/>
      <point x="647.3574007220217" y="1189.0"/>
      <point x="671.9061371841156" y="1022.0"/>
      <point x="830" y="1022" type="curve" smooth="yes"/>
      <point x="942" y="1022"/>
      <point x="1033" y="1106"/>
      <point x="1030" y="1238" type="curve" smooth="yes"/>
      <point x="1028" y="1347"/>
      <point x="932" y="1453"/>
      <point x="758" y="1453" type="curve" smooth="yes"/>
      <point x="537" y="1453"/>
      <point x="323" y="1272"/>
      <point x="263" y="927" type="curve" smooth="yes"/>
      <point x="250" y="850" type="line"/>
      <point x="285" y="880" type="line"/>
      <point x="177" y="880" type="line" smooth="yes"/>
      <point x="99" y="880"/>
      <point x="49" y="838"/>
      <point x="50" y="778" type="curve" smooth="yes"/>
      <point x="51" y="743"/>
      <point x="74" y="714"/>
      <point x="111" y="681" type="curve" smooth="yes"/>
      <point x="155" y="646" type="line" smooth="yes"/>
      <point x="200" y="610"/>
      <point x="218" y="568"/>
      <point x="195" y="490" type="curve" smooth="yes"/>
      <point x="119" y="231" type="line" smooth="yes"/>
      <point x="77" y="88"/>
      <point x="249" y="-30"/>
      <point x="230" y="-113" type="curve" smooth="yes"/>
      <point x="223" y="-145"/>
      <point x="202.0" y="-156.0"/>
      <point x="166" y="-156" type="curve" smooth="yes"/>
      <point x="83" y="-156.0"/>
      <point x="65.86486486486487" y="-3.0"/>
      <point x="-81" y="-3" type="curve" smooth="yes"/>
      <point x="-202" y="-3"/>
      <point x="-294" y="-109"/>
      <point x="-292" y="-224" type="curve" smooth="yes"/>
      <point x="-290" y="-339"/>
      <point x="-192" y="-424"/>
      <point x="-29" y="-424" type="curve" smooth="yes"/>
      <point x="200" y="-424"/>
      <point x="360" y="-280"/>
      <point x="459" y="86" type="curve" smooth="yes"/>
      <point x="640" y="750" type="line" smooth="yes"/>
      <point x="676" y="883"/>
      <point x="480" y="1024"/>
    </contour>
    <contour>
      <point x="439" y="592" type="line"/>
      <point x="659" y="592" type="line" smooth="yes"/>
      <point x="769" y="592"/>
      <point x="869" y="682"/>
      <point x="867" y="782" type="curve" smooth="yes"/>
      <point x="866" y="859"/>
      <point x="813" y="880"/>
      <point x="722" y="880" type="curve" smooth="yes"/>
      <point x="526" y="880" type="line"/>
    </contour>
  </outline>
</glyph>
<glyph name="grave.cap" format="2">
  <advance width="568"/>
  <anchor x="345" y="980" name="center"/>
  <outline>
    <contour>
      <point x="587" y="1322" type="line" smooth="yes"/>
      <point x="524" y="1437"/>
      <point x="452" y="1511"/>
      <point x="340" y="1481" type="curve" smooth="yes"/>
      <point x="243" y="1456"/>
      <point x="198" y="1364"/>
      <point x="221" y="1281" type="curve" smooth="yes"/>
      <point x="243" y="1201"/>
      <point x="295" y="1157"/>
      <point x="411" y="1113" type="curve" smooth="yes"/>
      <point x="573" y="1051" type="line" smooth="yes"/>
      <point x="612" y="1037"/>
      <point x="658" y="1041"/>
      <point x="680" y="1069" type="curve" smooth="yes"/>
      <point x="704" y="1100"/>
      <point x="691" y="1135"/>
      <point x="670" y="1173" type="curve" smooth="yes"/>
    </contour>
  </outline>
</glyph>
<glyph name="gravedouble.cap" format="2">
  <advance width="904"/>
  <anchor x="535" y="980" name="center"/>
  <outline>
    <contour>
      <point x="500" y="1319" type="line" smooth="yes"/>
      <point x="452" y="1426"/>
      <point x="393" y="1498"/>
      <point x="291" y="1480" type="curve" smooth="yes"/>
      <point x="203" y="1465"/>
      <point x="154" y="1385"/>
      <point x="167" y="1311" type="curve" smooth="yes"/>
      <point x="181" y="1237"/>
      <point x="224" y="1194"/>
      <point x="325" y="1144" type="curve" smooth="yes"/>
      <point x="465" y="1076" type="line" smooth="yes"/>
      <point x="500" y="1060"/>
      <point x="541" y="1060"/>
      <point x="563" y="1084" type="curve" smooth="yes"/>
      <point x="587" y="1110"/>
      <point x="578" y="1141"/>
      <point x="562" y="1178" type="curve" smooth="yes"/>
    </contour>
    <contour>
      <point x="896" y="1310" type="line" smooth="yes"/>
      <point x="856" y="1421"/>
      <point x="803" y="1497"/>
      <point x="699" y="1487" type="curve" smooth="yes"/>
      <point x="610" y="1477"/>
      <point x="556" y="1401"/>
      <point x="563" y="1326" type="curve" smooth="yes"/>
      <point x="573" y="1252"/>
      <point x="613" y="1204"/>
      <point x="710" y="1149" type="curve" smooth="yes"/>
      <point x="845" y="1071" type="line" smooth="yes"/>
      <point x="878" y="1052"/>
      <point x="919" y="1049"/>
      <point x="943" y="1072" type="curve" smooth="yes"/>
      <point x="968" y="1096"/>
      <point x="963" y="1127"/>
      <point x="948" y="1166" type="curve" smooth="yes"/>
    </contour>
  </outline>
</glyph>
<glyph name="hook.cap" format="2">
  <advance width="635"/>
  <outline>
    <contour>
      <point x="317" y="1057"/>
      <point x="300" y="1080"/>
      <point x="310" y="1117" type="curve" smooth="yes"/>
      <point x="318" y="1147"/>
      <point x="340" y="1173"/>
      <point x="396" y="1182" type="curve" smooth="yes"/>
      <point x="493" y="1197"/>
      <point x="509" y="1241"/>
      <point x="524" y="1295" type="curve" smooth="yes"/>
      <point x="535" y="1335"/>
      <point x="525" y="1357"/>
      <point x="488" y="1357" type="curve" smooth="yes"/>
      <point x="454" y="1357"/>
      <point x="429" y="1341"/>
      <point x="422" y="1313" type="curve" smooth="yes"/>
      <point x="418" y="1298" type="line" smooth="yes"/>
      <point x="403" y="1244"/>
      <point x="359" y="1216"/>
      <point x="293" y="1216" type="curve" smooth="yes"/>
      <point x="235" y="1216"/>
      <point x="204" y="1248"/>
      <point x="219" y="1304" type="curve" smooth="yes"/>
      <point x="244" y="1396"/>
      <point x="374" y="1471"/>
      <point x="528" y="1471" type="curve" smooth="yes"/>
      <point x="714" y="1471"/>
      <point x="779" y="1396"/>
      <point x="750" y="1286" type="curve" smooth="yes"/>
      <point x="712" y="1145"/>
      <point x="559" y="1057"/>
      <point x="369" y="1057" type="curve" smooth="yes"/>
    </contour>
  </outline>
</glyph>
<glyph name="hookcmb" format="2">
  <advance width="623"/>
  <outline>
    <contour>
      <point x="289" y="1047"/>
      <point x="272" y="1070"/>
      <point x="282" y="1107" type="curve" smooth="yes"/>
      <point x="290" y="1137"/>
      <point x="312" y="1163"/>
      <point x="367" y="1172" type="curve" smooth="yes"/>
      <point x="464" y="1187"/>
      <point x="481" y="1233"/>
      <point x="497" y="1290" type="curve" smooth="yes"/>
      <point x="508" y="1333"/>
      <point x="499" y="1357"/>
      <point x="462" y="1357" type="curve" smooth="yes"/>
      <point x="428" y="1357"/>
      <point x="403" y="1341"/>
      <point x="396" y="1313" type="curve" smooth="yes"/>
      <point x="392" y="1298" type="line" smooth="yes"/>
      <point x="377" y="1244"/>
      <point x="333" y="1216"/>
      <point x="267" y="1216" type="curve" smooth="yes"/>
      <point x="209" y="1216"/>
      <point x="177" y="1252"/>
      <point x="193" y="1315" type="curve" smooth="yes"/>
      <point x="217" y="1401"/>
      <point x="348" y="1471"/>
      <point x="502" y="1471" type="curve" smooth="yes"/>
      <point x="688" y="1471"/>
      <point x="756" y="1385"/>
      <point x="722" y="1261" type="curve" smooth="yes"/>
      <point x="687" y="1128"/>
      <point x="531" y="1047"/>
      <point x="341" y="1047" type="curve" smooth="yes"/>
    </contour>
  </outline>
</glyph>
<glyph name="hungarumlaut.cap" format="2">
  <advance width="904"/>
  <anchor x="295" y="980" name="center"/>
  <outline>
    <contour>
      <point x="341" y="1325" type="curve" smooth="yes"/>
      <point x="250" y="1184" type="line" smooth="yes"/>
      <point x="219" y="1137"/>
      <point x="203" y="1102"/>
      <point x="228" y="1071" type="curve" smooth="yes"/>
      <point x="250" y="1045"/>
      <point x="301" y="1046"/>
      <point x="348" y="1069" type="curve" smooth="yes"/>
      <point x="487" y="1136" type="line" smooth="yes"/>
      <point x="600" y="1192"/>
      <point x="654" y="1230"/>
      <point x="684" y="1300" type="curve" smooth="yes"/>
      <point x="714" y="1381"/>
      <point x="677" y="1467"/>
      <point x="588" y="1477" type="curve" smooth="yes"/>
      <point x="485" y="1487"/>
      <point x="406" y="1425"/>
    </contour>
    <contour>
      <point x="750" y="1325" type="curve" smooth="yes"/>
      <point x="659" y="1184" type="line" smooth="yes"/>
      <point x="628" y="1137"/>
      <point x="612" y="1102"/>
      <point x="637" y="1071" type="curve" smooth="yes"/>
      <point x="659" y="1045"/>
      <point x="710" y="1046"/>
      <point x="757" y="1069" type="curve" smooth="yes"/>
      <point x="896" y="1136" type="line" smooth="yes"/>
      <point x="1009" y="1192"/>
      <point x="1063" y="1230"/>
      <point x="1093" y="1300" type="curve" smooth="yes"/>
      <point x="1123" y="1381"/>
      <point x="1086" y="1467"/>
      <point x="997" y="1477" type="curve" smooth="yes"/>
      <point x="894" y="1487"/>
      <point x="815" y="1425"/>
    </contour>
  </outline>
</glyph>
<glyph name="invertedbreve.cap" format="2">
  <advance width="722"/>
  <outline>
    <contour>
      <point x="482.0" y="1167.0" type="curve" smooth="yes"/>
      <point x="548.0" y="1167.0"/>
      <point x="581.0" y="1151.0"/>
      <point x="609.0" y="1105.0" type="curve" smooth="yes"/>
      <point x="630.0" y="1070.0"/>
      <point x="647.0" y="1051.0"/>
      <point x="682.0" y="1051.0" type="curve" smooth="yes"/>
      <point x="727.0" y="1051.0"/>
      <point x="763.0" y="1088.0"/>
      <point x="772.0" y="1142.0" type="curve" smooth="yes"/>
      <point x="804.0" y="1319.0"/>
      <point x="703.0" y="1412.0"/>
      <point x="548.0" y="1412.0" type="curve" smooth="yes"/>
      <point x="381.0" y="1412.0"/>
      <point x="216.0" y="1320.0"/>
      <point x="152.0" y="1142.0" type="curve" smooth="yes"/>
      <point x="132.0" y="1085.0"/>
      <point x="146.0" y="1051.0"/>
      <point x="189.0" y="1051.0" type="curve" smooth="yes"/>
      <point x="234.0" y="1051.0"/>
      <point x="260.0" y="1075.0"/>
      <point x="299.0" y="1108.0" type="curve" smooth="yes"/>
      <point x="348.0" y="1149.0"/>
      <point x="396.0" y="1167.0"/>
    </contour>
  </outline>
</glyph>
<glyph name="lira" format="2">
  <advance width="1314"/>
  <outline>
    <contour>
      <point x="464" y="350" type="line"/>
      <point x="565.0" y="414.0"/>
      <point x="627.0" y="529.0"/>
      <point x="662" y="656" type="curve" smooth="yes"/>
      <point x="699.4296587861946" y="785.0338237103025"/>
      <point x="697.4841312010576" y="937.8218621513482"/>
      <point x="735" y="1079" type="curve" smooth="yes"/>
      <point x="778" y="1241"/>
      <point x="833" y="1315"/>
      <point x="911" y="1315" type="curve" smooth="yes"/>
      <point x="965" y="1315"/>
      <point x="991" y="1280"/>
      <point x="971" y="1193" type="curve" smooth="yes"/>
      <point x="941" y="1062" type="line" smooth="yes"/>
      <point x="914.7304992186397" y="947.28984658806"/>
      <point x="974.0" y="874.0"/>
      <point x="1096" y="874" type="curve" smooth="yes"/>
      <point x="1245.0" y="874.0"/>
      <point x="1368.0" y="990.2875816993464"/>
      <point x="1368" y="1130" type="curve" smooth="yes"/>
      <point x="1368.0" y="1307.0"/>
      <point x="1209.9473684210527" y="1438.0"/>
      <point x="939" y="1438" type="curve" smooth="yes"/>
      <point x="498.0" y="1438.0"/>
      <point x="223.0" y="1202.809619238477"/>
      <point x="223" y="949" type="curve" smooth="yes"/>
      <point x="223.0" y="747.4398148148148"/>
      <point x="421.0" y="629.0"/>
      <point x="421" y="507" type="curve" smooth="yes"/>
      <point x="421.0" y="458.0"/>
      <point x="394.0" y="410.0"/>
      <point x="328" y="357" type="curve"/>
    </contour>
    <contour>
      <point x="167.0" y="447.0"/>
      <point x="-22.0" y="295.0"/>
      <point x="-22" y="112" type="curve" smooth="yes"/>
      <point x="-22.0" y="24.0"/>
      <point x="27.708074534161483" y="-40.0"/>
      <point x="129" y="-40" type="curve" smooth="yes"/>
      <point x="245.35797665369648" y="-40.0"/>
      <point x="316.46112365362654" y="28.819929013637875"/>
      <point x="396" y="203" type="curve" smooth="yes"/>
      <point x="415.42763051344195" y="246.71216865524437"/>
      <point x="430" y="270.0"/>
      <point x="451" y="270" type="curve" smooth="yes"/>
      <point x="470" y="270"/>
      <point x="482.0" y="254.0"/>
      <point x="482" y="213" type="curve" smooth="yes"/>
      <point x="482" y="36"/>
      <point x="572" y="-40"/>
      <point x="747" y="-40" type="curve" smooth="yes"/>
      <point x="1005" y="-40"/>
      <point x="1187" y="206"/>
      <point x="1229" y="441" type="curve" smooth="yes"/>
      <point x="1239" y="497"/>
      <point x="1214" y="534"/>
      <point x="1166" y="541" type="curve" smooth="yes"/>
      <point x="1122" y="547"/>
      <point x="1085" y="522"/>
      <point x="1050" y="467" type="curve" smooth="yes"/>
      <point x="1008" y="402"/>
      <point x="956" y="361"/>
      <point x="868" y="361" type="curve" smooth="yes"/>
      <point x="706.5882352941177" y="361.0"/>
      <point x="576.0" y="447.0"/>
      <point x="378" y="447" type="curve" smooth="yes"/>
    </contour>
    <contour>
      <point x="149" y="759.0" type="curve" smooth="yes"/>
      <point x="142" y="733.0"/>
      <point x="152.0" y="717.0"/>
      <point x="179" y="717.0" type="curve" smooth="yes"/>
      <point x="454" y="717.0" type="line"/>
      <point x="376" y="837.0" type="line"/>
      <point x="220" y="821.0" type="line" smooth="yes"/>
      <point x="186" y="818"/>
      <point x="158" y="794.0"/>
    </contour>
    <contour>
      <point x="588" y="717.0" type="line"/>
      <point x="904" y="717.0" type="line" smooth="yes"/>
      <point x="932.0" y="717.0"/>
      <point x="956" y="737.0"/>
      <point x="965" y="769.0" type="curve" smooth="yes"/>
      <point x="973" y="798.0"/>
      <point x="960.0" y="821.0"/>
      <point x="932" y="821.0" type="curve" smooth="yes"/>
      <point x="612" y="821.0" type="line"/>
    </contour>
    <contour>
      <point x="116" y="563.0" type="curve" smooth="yes"/>
      <point x="107" y="531.0"/>
      <point x="120.0" y="511.0"/>
      <point x="153" y="511.0" type="curve" smooth="yes"/>
      <point x="872" y="511.0" type="line" smooth="yes"/>
      <point x="900" y="511"/>
      <point x="924" y="531.0"/>
      <point x="933" y="563.0" type="curve" smooth="yes"/>
      <point x="940" y="592.0"/>
      <point x="928" y="615"/>
      <point x="899" y="615.0" type="curve" smooth="yes"/>
      <point x="183" y="615.0" type="line" smooth="yes"/>
      <point x="153.0" y="615.0"/>
      <point x="123" y="592.0"/>
    </contour>
  </outline>
</glyph>
<glyph name="numero" format="2">
  <advance width="2484"/>
  <outline>
    <contour>
      <point x="1311" y="983" type="line" smooth="yes"/>
      <point x="1337" y="1075"/>
      <point x="1357" y="1148"/>
      <point x="1392" y="1166" type="curve" smooth="yes"/>
      <point x="1436" y="1189" type="line" smooth="yes"/>
      <point x="1483" y="1213"/>
      <point x="1509" y="1255"/>
      <point x="1509" y="1300" type="curve" smooth="yes"/>
      <point x="1509" y="1357"/>
      <point x="1481" y="1400"/>
      <point x="1404" y="1400" type="curve" smooth="yes"/>
      <point x="1126" y="1400" type="line" smooth="yes"/>
      <point x="1064" y="1400"/>
      <point x="1024" y="1356"/>
      <point x="1024" y="1303" type="curve" smooth="yes"/>
      <point x="1024" y="1251"/>
      <point x="1047" y="1220"/>
      <point x="1084" y="1195" type="curve" smooth="yes"/>
      <point x="1102" y="1183" type="line" smooth="yes"/>
      <point x="1144" y="1155"/>
      <point x="1141" y="1106"/>
      <point x="1114" y="1006" type="curve" smooth="yes"/>
      <point x="919" y="292" type="line"/>
      <point x="1016" y="511" type="line"/>
      <point x="776" y="1328" type="line" smooth="yes"/>
      <point x="758" y="1388"/>
      <point x="717" y="1400"/>
      <point x="639" y="1400" type="curve" smooth="yes"/>
      <point x="353" y="1400" type="line" smooth="yes"/>
      <point x="234" y="1400"/>
      <point x="224" y="1294"/>
      <point x="297" y="1196" type="curve" smooth="yes"/>
      <point x="312" y="1176" type="line" smooth="yes"/>
      <point x="340" y="1138"/>
      <point x="347" y="1107"/>
      <point x="324" y="1026" type="curve" smooth="yes"/>
      <point x="153" y="415" type="line" smooth="yes"/>
      <point x="116" y="281"/>
      <point x="99" y="247"/>
      <point x="72" y="233" type="curve" smooth="yes"/>
      <point x="28" y="210" type="line" smooth="yes"/>
      <point x="-20" y="185"/>
      <point x="-45" y="144"/>
      <point x="-45" y="100" type="curve" smooth="yes"/>
      <point x="-45" y="43"/>
      <point x="-17" y="0"/>
      <point x="60" y="0" type="curve" smooth="yes"/>
      <point x="359" y="0" type="line" smooth="yes"/>
      <point x="421" y="0"/>
      <point x="461" y="39"/>
      <point x="461" y="102" type="curve" smooth="yes"/>
      <point x="461" y="143"/>
      <point x="438" y="176"/>
      <point x="403" y="197" type="curve" smooth="yes"/>
      <point x="379" y="211" type="line" smooth="yes"/>
      <point x="330" y="240"/>
      <point x="316" y="269"/>
      <point x="350" y="393" type="curve" smooth="yes"/>
      <point x="561" y="1156" type="line"/>
      <point x="422" y="1017" type="line"/>
      <point x="648" y="197" type="line" smooth="yes"/>
      <point x="666" y="129"/>
      <point x="660" y="112"/>
      <point x="655" y="79" type="curve" smooth="yes"/>
      <point x="647" y="26"/>
      <point x="664" y="0"/>
      <point x="721" y="0" type="curve" smooth="yes"/>
      <point x="1045" y="0" type="line" smooth="yes"/>
      <point x="1161" y="0"/>
      <point x="1202" y="78"/>
      <point x="1161" y="211" type="curve" smooth="yes"/>
      <point x="1143" y="269" type="line" smooth="yes"/>
      <point x="1134" y="299"/>
      <point x="1128" y="330"/>
      <point x="1139" y="370" type="curve" smooth="yes"/>
    </contour>
    <contour>
      <point x="1396" y="112" type="curve" smooth="yes"/>
      <point x="1377" y="44"/>
      <point x="1398" y="0"/>
      <point x="1450" y="0" type="curve" smooth="yes"/>
      <point x="2120" y="0" type="line" smooth="yes"/>
      <point x="2200" y="0"/>
      <point x="2237" y="33"/>
      <point x="2260" y="112" type="curve" smooth="yes"/>
      <point x="2282" y="187"/>
      <point x="2257" y="237"/>
      <point x="2203" y="237" type="curve" smooth="yes"/>
      <point x="1515" y="237" type="line" smooth="yes"/>
      <point x="1464" y="237"/>
      <point x="1416" y="187"/>
    </contour>
    <contour>
      <point x="2486" y="1230"/>
      <point x="2336" y="1375"/>
      <point x="2050" y="1375" type="curve" smooth="yes"/>
      <point x="1718" y="1375"/>
      <point x="1434" y="1107"/>
      <point x="1434" y="747" type="curve" smooth="yes"/>
      <point x="1434" y="505"/>
      <point x="1588" y="363"/>
      <point x="1858" y="363" type="curve" smooth="yes"/>
      <point x="2206" y="363"/>
      <point x="2486" y="631"/>
      <point x="2486" y="990" type="curve" smooth="yes"/>
    </contour>
    <contour>
      <point x="1889" y="539" type="curve" smooth="yes"/>
      <point x="1834" y="539"/>
      <point x="1804" y="575"/>
      <point x="1804" y="670" type="curve" smooth="yes"/>
      <point x="1804" y="914"/>
      <point x="1920" y="1199"/>
      <point x="2037" y="1199" type="curve" smooth="yes"/>
      <point x="2087" y="1199"/>
      <point x="2116" y="1162"/>
      <point x="2116" y="1066" type="curve" smooth="yes"/>
      <point x="2116" y="817"/>
      <point x="1994" y="539"/>
    </contour>
  </outline>
</glyph>
<glyph name="ring.cap" format="2">
  <advance width="607"/>
  <outline>
    <contour>
      <point x="382" y="1043" type="curve" smooth="yes"/>
      <point x="529" y="1043"/>
      <point x="656" y="1115"/>
      <point x="689" y="1239" type="curve" smooth="yes"/>
      <point x="722" y="1361"/>
      <point x="634" y="1433"/>
      <point x="487" y="1433" type="curve" smooth="yes"/>
      <point x="344" y="1433"/>
      <point x="216" y="1365"/>
      <point x="182" y="1239" type="curve" smooth="yes"/>
      <point x="148" y="1111"/>
      <point x="239" y="1043"/>
    </contour>
    <contour>
      <point x="457" y="1314" type="curve" smooth="yes"/>
      <point x="499" y="1314"/>
      <point x="518" y="1283"/>
      <point x="506" y="1238" type="curve" smooth="yes"/>
      <point x="494" y="1193"/>
      <point x="458" y="1162"/>
      <point x="416" y="1162" type="curve" smooth="yes"/>
      <point x="374" y="1162"/>
      <point x="353" y="1192"/>
      <point x="366" y="1238" type="curve" smooth="yes"/>
      <point x="378" y="1284"/>
      <point x="415" y="1314"/>
    </contour>
  </outline>
</glyph>
<glyph name="ringacute" format="2">
  <advance width="679"/>
  <outline>
    <contour>
      <point x="407" y="1043" type="curve" smooth="yes"/>
      <point x="554" y="1043"/>
      <point x="682" y="1111"/>
      <point x="714" y="1229" type="curve" smooth="yes"/>
      <point x="748" y="1357"/>
      <point x="659" y="1433"/>
      <point x="512" y="1433" type="curve" smooth="yes"/>
      <point x="369" y="1433"/>
      <point x="239" y="1369"/>
      <point x="207" y="1249" type="curve" smooth="yes"/>
      <point x="171" y="1115"/>
      <point x="264" y="1043"/>
    </contour>
    <contour>
      <point x="482" y="1314" type="curve" smooth="yes"/>
      <point x="524" y="1314"/>
      <point x="543" y="1283"/>
      <point x="531" y="1238" type="curve" smooth="yes"/>
      <point x="519" y="1193"/>
      <point x="483" y="1162"/>
      <point x="441" y="1162" type="curve" smooth="yes"/>
      <point x="399" y="1162"/>
      <point x="378" y="1192"/>
      <point x="391" y="1238" type="curve" smooth="yes"/>
      <point x="403" y="1284"/>
      <point x="440" y="1314"/>
    </contour>
    <contour>
      <point x="544" y="1688" type="curve" smooth="yes"/>
      <point x="436" y="1568" type="line" smooth="yes"/>
      <point x="410" y="1540"/>
      <point x="389" y="1512"/>
      <point x="400" y="1484" type="curve" smooth="yes"/>
      <point x="410" y="1459"/>
      <point x="445" y="1453"/>
      <point x="483" y="1464" type="curve" smooth="yes"/>
      <point x="629" y="1506" type="line" smooth="yes"/>
      <point x="737" y="1536"/>
      <point x="792" y="1568"/>
      <point x="831" y="1632" type="curve" smooth="yes"/>
      <point x="871" y="1701"/>
      <point x="860" y="1778"/>
      <point x="791" y="1805" type="curve" smooth="yes"/>
      <point x="708" y="1837"/>
      <point x="630" y="1779"/>
    </contour>
  </outline>
</glyph>
<glyph name="ringcmb" format="2">
  <advance width="628"/>
  <outline>
    <contour>
      <point x="414" y="1044" type="curve" smooth="yes"/>
      <point x="572" y="1044"/>
      <point x="702" y="1125"/>
      <point x="735" y="1248" type="curve" smooth="yes"/>
      <point x="771" y="1381"/>
      <point x="686" y="1471"/>
      <point x="528" y="1471" type="curve" smooth="yes"/>
      <point x="362" y="1471"/>
      <point x="240" y="1385"/>
      <point x="208" y="1269" type="curve" smooth="yes"/>
      <point x="169" y="1128"/>
      <point x="266" y="1044"/>
    </contour>
    <contour>
      <point x="497" y="1348" type="curve" smooth="yes"/>
      <point x="551" y="1348"/>
      <point x="575" y="1311"/>
      <point x="561" y="1258" type="curve" smooth="yes"/>
      <point x="547" y="1206"/>
      <point x="503" y="1168"/>
      <point x="449" y="1168" type="curve" smooth="yes"/>
      <point x="395" y="1168"/>
      <point x="369" y="1205"/>
      <point x="383" y="1258" type="curve" smooth="yes"/>
      <point x="398" y="1312"/>
      <point x="443" y="1348"/>
    </contour>
  </outline>
</glyph>
<glyph name="tilde.cap" format="2">
  <advance width="774"/>
  <outline>
    <contour>
      <point x="464.99595141700405" y="1148.0"/>
      <point x="513.789029535865" y="1054.0"/>
      <point x="645" y="1054" type="curve" smooth="yes"/>
      <point x="748.0" y="1054.0"/>
      <point x="860.6729752126565" y="1135.1342424464071"/>
      <point x="904" y="1294" type="curve" smooth="yes"/>
      <point x="922" y="1363"/>
      <point x="910" y="1397"/>
      <point x="860" y="1397" type="curve" smooth="yes"/>
      <point x="824" y="1397"/>
      <point x="800" y="1384"/>
      <point x="775" y="1348" type="curve" smooth="yes"/>
      <point x="753.820146927297" y="1311.5706527149507"/>
      <point x="724.0" y="1299.0"/>
      <point x="690" y="1299" type="curve" smooth="yes"/>
      <point x="616.0168067226891" y="1299.0"/>
      <point x="568.0840336134454" y="1393.0"/>
      <point x="442" y="1393" type="curve" smooth="yes"/>
      <point x="338.0" y="1393.0"/>
      <point x="226.10918522372054" y="1311.6854595611662"/>
      <point x="184" y="1154" type="curve" smooth="yes"/>
      <point x="166" y="1085"/>
      <point x="177" y="1050"/>
      <point x="227" y="1050" type="curve" smooth="yes"/>
      <point x="263" y="1050"/>
      <point x="288" y="1063"/>
      <point x="313" y="1100" type="curve" smooth="yes"/>
      <point x="335.16401005398893" y="1135.596743420043"/>
      <point x="359.7647058823529" y="1148.0"/>
      <point x="388" y="1148" type="curve" smooth="yes"/>
    </contour>
  </outline>
</glyph>
<glyph name="v.alt" format="2">
  <advance width="1220"/>
  <outline>
    <contour>
      <point x="225" y="112" type="curve" smooth="yes"/>
      <point x="222" y="251"/>
      <point x="218" y="413"/>
      <point x="211" y="552" type="curve" smooth="yes"/>
      <point x="205" y="593"/>
      <point x="198" y="599"/>
      <point x="183" y="599" type="curve" smooth="yes"/>
      <point x="172" y="599"/>
      <point x="163" y="593"/>
      <point x="153" y="581" type="curve" smooth="yes"/>
      <point x="134" y="558"/>
      <point x="112" y="548"/>
      <point x="80" y="548" type="curve" smooth="yes"/>
      <point x="36" y="548"/>
      <point x="13" y="581"/>
      <point x="17" y="639" type="curve" smooth="yes"/>
      <point x="29" y="787"/>
      <point x="224" y="955"/>
      <point x="461" y="955" type="curve" smooth="yes"/>
      <point x="574" y="955"/>
      <point x="615" y="878"/>
      <point x="626" y="721" type="curve" smooth="yes"/>
      <point x="634" y="559"/>
      <point x="639" y="432"/>
      <point x="644" y="335" type="curve" smooth="yes"/>
      <point x="645" y="287"/>
      <point x="658" y="263"/>
      <point x="696" y="263" type="curve" smooth="yes"/>
      <point x="747" y="263"/>
      <point x="836" y="425"/>
      <point x="844" y="540" type="curve" smooth="yes"/>
      <point x="848" y="592"/>
      <point x="844" y="608"/>
      <point x="818" y="650" type="curve" smooth="yes"/>
      <point x="800" y="682"/>
      <point x="780" y="712"/>
      <point x="784" y="752" type="curve" smooth="yes"/>
      <point x="792" y="874"/>
      <point x="888" y="968"/>
      <point x="1030" y="968" type="curve" smooth="yes"/>
      <point x="1158" y="968"/>
      <point x="1227" y="906"/>
      <point x="1218" y="774" type="curve" smooth="yes"/>
      <point x="1188" y="371"/>
      <point x="723" y="-26"/>
      <point x="407" y="-26" type="curve" smooth="yes"/>
      <point x="290" y="-26"/>
      <point x="226" y="17"/>
    </contour>
  </outline>
</glyph>
<glyph name="won" format="2">
  <advance width="2028"/>
  <outline>
    <contour>
      <point x="1723" y="1287" type="curve" smooth="yes"/>
      <point x="1723" y="1250"/>
      <point x="1735" y="1226"/>
      <point x="1764" y="1207" type="curve" smooth="yes"/>
      <point x="1785" y="1193" type="line" smooth="yes"/>
      <point x="1820" y="1170"/>
      <point x="1809" y="1135"/>
      <point x="1782" y="1078" type="curve" smooth="yes"/>
      <point x="1477" y="439" type="line"/>
      <point x="1511" y="439" type="line"/>
      <point x="1492" y="1257" type="line" smooth="yes"/>
      <point x="1490" y="1361"/>
      <point x="1464" y="1402"/>
      <point x="1405" y="1402" type="curve" smooth="yes"/>
      <point x="1290" y="1402" type="line" smooth="yes"/>
      <point x="1232" y="1402"/>
      <point x="1192" y="1368"/>
      <point x="1151" y="1290" type="curve" smooth="yes"/>
      <point x="704" y="448" type="line"/>
      <point x="749" y="448" type="line"/>
      <point x="753" y="1046" type="line" smooth="yes"/>
      <point x="754" y="1127"/>
      <point x="773" y="1155"/>
      <point x="814" y="1176" type="curve" smooth="yes"/>
      <point x="838" y="1188" type="line" smooth="yes"/>
      <point x="885" y="1212"/>
      <point x="914" y="1252"/>
      <point x="914" y="1304" type="curve" smooth="yes"/>
      <point x="914" y="1362"/>
      <point x="888" y="1400"/>
      <point x="805" y="1400" type="curve" smooth="yes"/>
      <point x="346" y="1400" type="line" smooth="yes"/>
      <point x="265" y="1400"/>
      <point x="223" y="1358"/>
      <point x="223" y="1299" type="curve" smooth="yes"/>
      <point x="223" y="1246"/>
      <point x="244" y="1218"/>
      <point x="288" y="1191" type="curve" smooth="yes"/>
      <point x="304" y="1181" type="line" smooth="yes"/>
      <point x="327" y="1167"/>
      <point x="331" y="1143"/>
      <point x="331" y="1093" type="curve" smooth="yes"/>
      <point x="339" y="131" type="line" smooth="yes"/>
      <point x="340" y="41"/>
      <point x="383" y="0"/>
      <point x="455" y="0" type="curve" smooth="yes"/>
      <point x="564" y="0" type="line" smooth="yes"/>
      <point x="642" y="0"/>
      <point x="703" y="52"/>
      <point x="740" y="124" type="curve" smooth="yes"/>
      <point x="1171" y="962" type="line"/>
      <point x="1098" y="958" type="line"/>
      <point x="1125" y="107" type="line" smooth="yes"/>
      <point x="1127" y="41"/>
      <point x="1161" y="0"/>
      <point x="1243" y="0" type="curve" smooth="yes"/>
      <point x="1349" y="0" type="line" smooth="yes"/>
      <point x="1424" y="0"/>
      <point x="1482" y="39"/>
      <point x="1526" y="129" type="curve" smooth="yes"/>
      <point x="1979" y="1050" type="line" smooth="yes"/>
      <point x="2017" y="1128"/>
      <point x="2043" y="1150"/>
      <point x="2084" y="1172" type="curve" smooth="yes"/>
      <point x="2116" y="1189" type="line" smooth="yes"/>
      <point x="2165" y="1215"/>
      <point x="2192" y="1255"/>
      <point x="2192" y="1301" type="curve" smooth="yes"/>
      <point x="2192" y="1359"/>
      <point x="2167" y="1400"/>
      <point x="2087" y="1400" type="curve" smooth="yes"/>
      <point x="1846" y="1400" type="line" smooth="yes"/>
      <point x="1768" y="1400"/>
      <point x="1723" y="1354"/>
    </contour>
    <contour>
      <point x="403" y="936" type="line"/>
      <point x="220" y="936" type="line" smooth="yes"/>
      <point x="186" y="936"/>
      <point x="157" y="912"/>
      <point x="146" y="874" type="curve" smooth="yes"/>
      <point x="137" y="839"/>
      <point x="153" y="812"/>
      <point x="187" y="812" type="curve" smooth="yes"/>
      <point x="405" y="812" type="line"/>
    </contour>
    <contour>
      <point x="1034" y="956" type="line"/>
      <point x="538" y="956" type="line"/>
      <point x="530" y="832" type="line"/>
      <point x="978" y="832" type="line"/>
    </contour>
    <contour>
      <point x="2099" y="894" type="curve" smooth="yes"/>
      <point x="2109" y="932"/>
      <point x="2097.0" y="956.0"/>
      <point x="2064" y="956" type="curve" smooth="yes"/>
      <point x="1333" y="956" type="line"/>
      <point x="1344" y="832" type="line"/>
      <point x="2028" y="832" type="line" smooth="yes"/>
      <point x="2058.0" y="832.0"/>
      <point x="2089" y="859"/>
    </contour>
    <contour>
      <point x="424" y="570" type="line"/>
      <point x="182" y="570" type="line" smooth="yes"/>
      <point x="148" y="570"/>
      <point x="118" y="546"/>
      <point x="108" y="508" type="curve" smooth="yes"/>
      <point x="99" y="473"/>
      <point x="115" y="446"/>
      <point x="149" y="446" type="curve" smooth="yes"/>
      <point x="416" y="446" type="line"/>
    </contour>
    <contour>
      <point x="1930" y="508" type="curve" smooth="yes"/>
      <point x="1940" y="546"/>
      <point x="1929.0" y="570.0"/>
      <point x="1896" y="570" type="curve" smooth="yes"/>
      <point x="1592" y="570" type="line"/>
      <point x="1543" y="446" type="line"/>
      <point x="1860" y="446" type="line" smooth="yes"/>
      <point x="1890.0" y="446.0"/>
      <point x="1921" y="473"/>
    </contour>
    <contour>
      <point x="1190" y="531" type="line"/>
      <point x="864" y="531" type="line"/>
      <point x="786" y="407" type="line"/>
      <point x="1214" y="407" type="line"/>
    </contour>
  </outline>
</glyph>
